M48
; DRILL file {KiCad (6.0.11)} date Tue Aug 29 14:33:59 2023
; FORMAT={-:-/ absolute / metric / decimal}
; #@! TF.CreationDate,2023-08-29T14:33:59-05:00
; #@! TF.GenerationSoftware,Kicad,Pcbnew,(6.0.11)
; #@! TF.FileFunction,Plated,1,4,PTH
FMAT,2
METRIC
; #@! TA.AperFunction,Plated,PTH,ViaDrill
T1C0.300
; #@! TA.AperFunction,Plated,PTH,ViaDrill
T2C0.500
; #@! TA.AperFunction,Plated,PTH,ComponentDrill
T3C0.800
; #@! TA.AperFunction,Plated,PTH,ComponentDrill
T4C1.000
; #@! TA.AperFunction,Plated,PTH,ComponentDrill
T5C1.200
; #@! TA.AperFunction,Plated,PTH,ComponentDrill
T6C1.400
%
G90
G05
T1
X71.12Y-86.36
X71.12Y-88.9
X71.12Y-96.52
X73.66Y-50.8
X73.66Y-86.36
X73.66Y-88.9
X73.66Y-91.44
X73.66Y-93.98
X73.66Y-96.52
X74.117Y-53.746
X75.286Y-65.303
X76.2Y-48.26
X76.2Y-50.8
X76.2Y-53.34
X76.2Y-55.88
X76.2Y-68.58
X76.2Y-81.28
X76.2Y-83.82
X76.2Y-86.36
X76.2Y-88.9
X76.2Y-91.44
X76.2Y-93.98
X76.2Y-96.52
X78.74Y-48.26
X78.74Y-50.8
X78.74Y-53.34
X78.74Y-55.88
X78.74Y-78.74
X78.74Y-96.52
X78.74Y-99.06
X81.28Y-48.26
X81.28Y-50.8
X81.28Y-53.34
X81.28Y-63.5
X81.28Y-66.04
X81.28Y-83.82
X81.28Y-86.36
X81.28Y-88.9
X81.28Y-91.44
X81.813Y-46.812
X83.82Y-50.8
X83.82Y-53.34
X83.82Y-58.42
X83.82Y-86.36
X83.82Y-88.9
X83.82Y-91.44
X84.633Y-93.396
X86.36Y-50.8
X86.36Y-53.34
X86.36Y-58.42
X88.9Y-40.64
X88.9Y-48.26
X88.9Y-50.8
X88.9Y-53.34
X88.9Y-58.42
X88.9Y-60.96
X88.9Y-63.5
X90.551Y-79.604
X91.44Y-40.64
X91.44Y-48.26
X91.44Y-50.8
X91.44Y-53.34
X91.44Y-58.42
X91.44Y-60.96
X91.44Y-63.5
X91.44Y-86.36
X91.77Y-79.578
X93.98Y-40.64
X93.98Y-48.26
X93.98Y-50.8
X93.98Y-53.34
X93.98Y-58.42
X93.98Y-60.96
X93.98Y-63.5
X93.98Y-86.36
X93.98Y-88.9
X95.58Y-91.77
X95.761Y-85.039
X96.52Y-48.26
X96.52Y-50.8
X96.52Y-53.34
X96.52Y-58.42
X96.52Y-60.96
X96.52Y-63.5
X96.52Y-78.74
X96.52Y-81.28
X98.377Y-88.011
X99.06Y-55.88
X99.06Y-58.42
X99.06Y-60.96
X99.06Y-63.5
X99.06Y-78.74
X99.06Y-81.28
X101.321Y-92.278
X101.6Y-50.8
X101.6Y-53.34
X101.6Y-55.88
X102.87Y-34.925
X102.997Y-36.576
X103.099Y-38.329
X103.175Y-92.964
X103.2Y-93.98
X103.251Y-64.643
X104.14Y-50.8
X104.14Y-53.34
X104.14Y-68.58
X104.14Y-71.12
X104.14Y-73.66
X104.14Y-78.74
X104.445Y-85.217
X104.521Y-34.9
X104.775Y-36.424
X105.054Y-38.202
X106.147Y-34.9
X106.248Y-36.297
X106.426Y-38.303
X106.68Y-68.58
X106.68Y-71.12
X106.68Y-73.66
X106.68Y-78.74
X107.137Y-82.093
X108.839Y-90.449
X108.991Y-86.995
X109.22Y-71.12
X109.22Y-73.66
X111.76Y-68.58
X111.76Y-71.12
X111.76Y-73.66
X113.487Y-92.354
X113.919Y-87.452
X114.224Y-99.898
X114.3Y-68.58
X114.3Y-71.12
X114.3Y-73.66
X116.84Y-68.58
X116.84Y-71.12
X116.84Y-73.66
X118.313Y-91.135
X118.415Y-90.018
X119.38Y-68.58
X119.38Y-71.12
X119.38Y-73.66
X119.609Y-92.481
X119.659Y-46.203
X119.71Y-44.933
X119.736Y-47.346
X119.736Y-48.59
X119.761Y-49.708
X120.904Y-44.933
X121.031Y-46.177
X121.031Y-47.269
X121.056Y-49.682
X121.133Y-48.692
X121.92Y-40.64
X121.92Y-43.18
X121.92Y-60.96
X121.92Y-63.5
X121.92Y-66.04
X121.92Y-68.58
X121.92Y-71.12
X121.92Y-73.66
X121.92Y-88.9
X122.276Y-45.669
X122.352Y-47.092
X122.352Y-48.514
X122.403Y-49.733
X122.403Y-100.813
X122.631Y-80.95
X124.46Y-40.64
X124.46Y-43.18
X124.46Y-60.96
X124.46Y-88.9
X124.46Y-91.44
X126.365Y-38.43
X127.0Y-40.64
X127.0Y-43.18
X127.0Y-86.36
X127.0Y-88.9
X127.0Y-91.44
X128.829Y-63.602
X129.54Y-43.18
X129.54Y-58.42
X129.54Y-60.96
X129.54Y-86.36
X129.54Y-88.9
X129.54Y-91.44
X129.667Y-64.846
X130.048Y-63.627
X130.658Y-64.821
X131.623Y-64.872
X131.699Y-66.345
X131.724Y-76.225
X132.08Y-58.42
X132.08Y-60.96
X132.08Y-73.66
X132.08Y-86.36
X132.08Y-88.9
X132.08Y-91.44
X134.137Y-61.747
X134.163Y-84.252
X134.62Y-43.18
X134.62Y-45.72
X134.62Y-48.26
X134.62Y-53.34
X134.62Y-55.88
X134.62Y-63.5
X134.62Y-71.12
X134.62Y-73.66
X134.62Y-88.9
X134.62Y-91.44
X134.62Y-93.98
X134.62Y-96.52
X134.62Y-99.06
X135.077Y-66.954
X136.144Y-92.685
X136.347Y-64.872
X136.347Y-97.511
X136.677Y-68.097
X137.16Y-43.18
X137.16Y-45.72
X137.16Y-48.26
X137.16Y-53.34
X137.16Y-55.88
X139.7Y-43.18
X139.7Y-45.72
X139.7Y-48.26
T2
X79.883Y-59.461
X81.432Y-60.249
X86.03Y-84.887
X86.055Y-86.157
X102.21Y-80.747
X103.556Y-80.797
X109.652Y-66.904
X109.779Y-68.224
X115.849Y-84.684
X117.297Y-84.506
X127.711Y-75.26
X127.711Y-82.144
X128.829Y-79.908
X129.87Y-75.717
T3
X96.444Y-99.797
X96.444Y-107.417
X98.984Y-99.797
X98.984Y-107.417
X101.524Y-99.797
X101.524Y-107.417
X104.064Y-99.797
X104.064Y-107.417
X106.604Y-99.797
X106.604Y-107.417
T4
X72.35Y-43.104
X74.89Y-43.104
X95.009Y-73.787
X97.549Y-73.787
X120.106Y-83.312
X122.646Y-83.312
X125.186Y-83.312
X125.989Y-96.444
X126.36Y-35.738
X128.529Y-96.444
X128.9Y-35.738
T5
X79.769Y-73.787
X87.389Y-73.787
T6
X71.552Y-75.006
X71.552Y-80.086
X71.679Y-60.249
X71.679Y-65.329
X83.033Y-35.839
X88.113Y-35.839
X116.535Y-106.223
X121.615Y-106.223
X139.358Y-81.636
X139.358Y-86.716
T0
M30
