G04 #@! TF.GenerationSoftware,KiCad,Pcbnew,(6.0.11)*
G04 #@! TF.CreationDate,2023-08-29T14:33:34-05:00*
G04 #@! TF.ProjectId,Puerta,50756572-7461-42e6-9b69-6361645f7063,rev?*
G04 #@! TF.SameCoordinates,Original*
G04 #@! TF.FileFunction,Legend,Top*
G04 #@! TF.FilePolarity,Positive*
%FSLAX46Y46*%
G04 Gerber Fmt 4.6, Leading zero omitted, Abs format (unit mm)*
G04 Created by KiCad (PCBNEW (6.0.11)) date 2023-08-29 14:33:34*
%MOMM*%
%LPD*%
G01*
G04 APERTURE LIST*
G04 Aperture macros list*
%AMRoundRect*
0 Rectangle with rounded corners*
0 $1 Rounding radius*
0 $2 $3 $4 $5 $6 $7 $8 $9 X,Y pos of 4 corners*
0 Add a 4 corners polygon primitive as box body*
4,1,4,$2,$3,$4,$5,$6,$7,$8,$9,$2,$3,0*
0 Add four circle primitives for the rounded corners*
1,1,$1+$1,$2,$3*
1,1,$1+$1,$4,$5*
1,1,$1+$1,$6,$7*
1,1,$1+$1,$8,$9*
0 Add four rect primitives between the rounded corners*
20,1,$1+$1,$2,$3,$4,$5,0*
20,1,$1+$1,$4,$5,$6,$7,0*
20,1,$1+$1,$6,$7,$8,$9,0*
20,1,$1+$1,$8,$9,$2,$3,0*%
G04 Aperture macros list end*
%ADD10C,0.250000*%
%ADD11C,0.200000*%
%ADD12C,0.300000*%
%ADD13C,0.500000*%
%ADD14C,0.127000*%
%ADD15C,0.120000*%
%ADD16C,0.150000*%
%ADD17R,1.508000X1.508000*%
%ADD18C,1.508000*%
%ADD19C,1.800000*%
%ADD20RoundRect,0.249999X1.550001X-0.790001X1.550001X0.790001X-1.550001X0.790001X-1.550001X-0.790001X0*%
%ADD21O,3.600000X2.080000*%
%ADD22RoundRect,0.140000X-0.170000X0.140000X-0.170000X-0.140000X0.170000X-0.140000X0.170000X0.140000X0*%
%ADD23RoundRect,0.140000X-0.140000X-0.170000X0.140000X-0.170000X0.140000X0.170000X-0.140000X0.170000X0*%
%ADD24RoundRect,0.150000X-0.150000X0.825000X-0.150000X-0.825000X0.150000X-0.825000X0.150000X0.825000X0*%
%ADD25RoundRect,0.218750X-0.256250X0.218750X-0.256250X-0.218750X0.256250X-0.218750X0.256250X0.218750X0*%
%ADD26C,2.000000*%
%ADD27RoundRect,0.200000X0.200000X0.275000X-0.200000X0.275000X-0.200000X-0.275000X0.200000X-0.275000X0*%
%ADD28RoundRect,0.150000X0.150000X-0.587500X0.150000X0.587500X-0.150000X0.587500X-0.150000X-0.587500X0*%
%ADD29RoundRect,0.225000X-0.250000X0.225000X-0.250000X-0.225000X0.250000X-0.225000X0.250000X0.225000X0*%
%ADD30R,0.910000X1.220000*%
%ADD31C,3.200000*%
%ADD32RoundRect,0.140000X0.170000X-0.140000X0.170000X0.140000X-0.170000X0.140000X-0.170000X-0.140000X0*%
%ADD33RoundRect,0.200000X-0.275000X0.200000X-0.275000X-0.200000X0.275000X-0.200000X0.275000X0.200000X0*%
%ADD34RoundRect,0.250000X0.312500X0.625000X-0.312500X0.625000X-0.312500X-0.625000X0.312500X-0.625000X0*%
%ADD35RoundRect,0.249999X-1.550001X0.790001X-1.550001X-0.790001X1.550001X-0.790001X1.550001X0.790001X0*%
%ADD36R,1.600000X1.600000*%
%ADD37O,1.600000X1.600000*%
%ADD38RoundRect,0.249999X-0.790001X-1.550001X0.790001X-1.550001X0.790001X1.550001X-0.790001X1.550001X0*%
%ADD39O,2.080000X3.600000*%
%ADD40R,1.800000X2.500000*%
%ADD41R,1.100000X4.600000*%
%ADD42R,10.800000X9.400000*%
%ADD43RoundRect,0.249999X0.790001X1.550001X-0.790001X1.550001X-0.790001X-1.550001X0.790001X-1.550001X0*%
%ADD44RoundRect,0.250000X1.000000X-1.950000X1.000000X1.950000X-1.000000X1.950000X-1.000000X-1.950000X0*%
%ADD45R,1.000000X0.750000*%
%ADD46R,2.899999X5.399999*%
%ADD47R,1.700000X1.700000*%
%ADD48O,1.700000X1.700000*%
%ADD49RoundRect,0.250000X-0.262500X-0.450000X0.262500X-0.450000X0.262500X0.450000X-0.262500X0.450000X0*%
%ADD50RoundRect,0.140000X0.140000X0.170000X-0.140000X0.170000X-0.140000X-0.170000X0.140000X-0.170000X0*%
%ADD51RoundRect,0.200000X0.275000X-0.200000X0.275000X0.200000X-0.275000X0.200000X-0.275000X-0.200000X0*%
%ADD52RoundRect,0.150000X0.587500X0.150000X-0.587500X0.150000X-0.587500X-0.150000X0.587500X-0.150000X0*%
%ADD53R,1.200000X0.900000*%
%ADD54RoundRect,0.250000X0.475000X-0.250000X0.475000X0.250000X-0.475000X0.250000X-0.475000X-0.250000X0*%
%ADD55R,1.220000X0.910000*%
%ADD56RoundRect,0.225000X0.250000X-0.225000X0.250000X0.225000X-0.250000X0.225000X-0.250000X-0.225000X0*%
%ADD57RoundRect,0.200000X-0.200000X-0.275000X0.200000X-0.275000X0.200000X0.275000X-0.200000X0.275000X0*%
%ADD58RoundRect,0.250001X0.799999X-2.049999X0.799999X2.049999X-0.799999X2.049999X-0.799999X-2.049999X0*%
%ADD59RoundRect,0.075000X-0.662500X-0.075000X0.662500X-0.075000X0.662500X0.075000X-0.662500X0.075000X0*%
%ADD60RoundRect,0.075000X-0.075000X-0.662500X0.075000X-0.662500X0.075000X0.662500X-0.075000X0.662500X0*%
%ADD61R,1.500000X2.000000*%
%ADD62R,3.800000X2.000000*%
%ADD63RoundRect,0.250000X-0.250000X-0.475000X0.250000X-0.475000X0.250000X0.475000X-0.250000X0.475000X0*%
%ADD64R,1.400000X1.200000*%
%ADD65RoundRect,0.135000X0.135000X0.185000X-0.135000X0.185000X-0.135000X-0.185000X0.135000X-0.185000X0*%
G04 APERTURE END LIST*
D10*
X139563552Y-59327980D02*
X139754028Y-59327980D01*
X139849266Y-59375600D01*
X139944504Y-59470838D01*
X139992123Y-59661314D01*
X139992123Y-59994647D01*
X139944504Y-60185123D01*
X139849266Y-60280361D01*
X139754028Y-60327980D01*
X139563552Y-60327980D01*
X139468314Y-60280361D01*
X139373076Y-60185123D01*
X139325457Y-59994647D01*
X139325457Y-59661314D01*
X139373076Y-59470838D01*
X139468314Y-59375600D01*
X139563552Y-59327980D01*
X140420695Y-60327980D02*
X140420695Y-59327980D01*
X140992123Y-60327980D01*
X140992123Y-59327980D01*
X139230219Y-60937980D02*
X139420695Y-60937980D01*
X139515933Y-60985600D01*
X139611171Y-61080838D01*
X139658790Y-61271314D01*
X139658790Y-61604647D01*
X139611171Y-61795123D01*
X139515933Y-61890361D01*
X139420695Y-61937980D01*
X139230219Y-61937980D01*
X139134980Y-61890361D01*
X139039742Y-61795123D01*
X138992123Y-61604647D01*
X138992123Y-61271314D01*
X139039742Y-61080838D01*
X139134980Y-60985600D01*
X139230219Y-60937980D01*
X140420695Y-61414171D02*
X140087361Y-61414171D01*
X140087361Y-61937980D02*
X140087361Y-60937980D01*
X140563552Y-60937980D01*
X141277838Y-61414171D02*
X140944504Y-61414171D01*
X140944504Y-61937980D02*
X140944504Y-60937980D01*
X141420695Y-60937980D01*
X75195371Y-73490200D02*
X75100133Y-73442580D01*
X74957276Y-73442580D01*
X74814418Y-73490200D01*
X74719180Y-73585438D01*
X74671561Y-73680676D01*
X74623942Y-73871152D01*
X74623942Y-74014009D01*
X74671561Y-74204485D01*
X74719180Y-74299723D01*
X74814418Y-74394961D01*
X74957276Y-74442580D01*
X75052514Y-74442580D01*
X75195371Y-74394961D01*
X75242990Y-74347342D01*
X75242990Y-74014009D01*
X75052514Y-74014009D01*
X75671561Y-74442580D02*
X75671561Y-73442580D01*
X76242990Y-74442580D01*
X76242990Y-73442580D01*
X76719180Y-74442580D02*
X76719180Y-73442580D01*
X76957276Y-73442580D01*
X77100133Y-73490200D01*
X77195371Y-73585438D01*
X77242990Y-73680676D01*
X77290609Y-73871152D01*
X77290609Y-74014009D01*
X77242990Y-74204485D01*
X77195371Y-74299723D01*
X77100133Y-74394961D01*
X76957276Y-74442580D01*
X76719180Y-74442580D01*
X73866523Y-49687219D02*
X73914142Y-49639600D01*
X74009380Y-49591980D01*
X74247476Y-49591980D01*
X74342714Y-49639600D01*
X74390333Y-49687219D01*
X74437952Y-49782457D01*
X74437952Y-49877695D01*
X74390333Y-50020552D01*
X73818904Y-50591980D01*
X74437952Y-50591980D01*
X75295095Y-49925314D02*
X75295095Y-50591980D01*
X75057000Y-49544361D02*
X74818904Y-50258647D01*
X75437952Y-50258647D01*
X75676047Y-49591980D02*
X76009380Y-50591980D01*
X76342714Y-49591980D01*
X87001457Y-104574828D02*
X87763361Y-104574828D01*
X87382409Y-104955780D02*
X87382409Y-104193876D01*
X88382409Y-104384352D02*
X88287171Y-104336733D01*
X88239552Y-104289114D01*
X88191933Y-104193876D01*
X88191933Y-104146257D01*
X88239552Y-104051019D01*
X88287171Y-104003400D01*
X88382409Y-103955780D01*
X88572885Y-103955780D01*
X88668123Y-104003400D01*
X88715742Y-104051019D01*
X88763361Y-104146257D01*
X88763361Y-104193876D01*
X88715742Y-104289114D01*
X88668123Y-104336733D01*
X88572885Y-104384352D01*
X88382409Y-104384352D01*
X88287171Y-104431971D01*
X88239552Y-104479590D01*
X88191933Y-104574828D01*
X88191933Y-104765304D01*
X88239552Y-104860542D01*
X88287171Y-104908161D01*
X88382409Y-104955780D01*
X88572885Y-104955780D01*
X88668123Y-104908161D01*
X88715742Y-104860542D01*
X88763361Y-104765304D01*
X88763361Y-104574828D01*
X88715742Y-104479590D01*
X88668123Y-104431971D01*
X88572885Y-104384352D01*
X119394361Y-81078342D02*
X119346742Y-81125961D01*
X119203885Y-81173580D01*
X119108647Y-81173580D01*
X118965790Y-81125961D01*
X118870552Y-81030723D01*
X118822933Y-80935485D01*
X118775314Y-80745009D01*
X118775314Y-80602152D01*
X118822933Y-80411676D01*
X118870552Y-80316438D01*
X118965790Y-80221200D01*
X119108647Y-80173580D01*
X119203885Y-80173580D01*
X119346742Y-80221200D01*
X119394361Y-80268819D01*
X120299123Y-81173580D02*
X119822933Y-81173580D01*
X119822933Y-80173580D01*
X120632457Y-81173580D02*
X120632457Y-80173580D01*
X121203885Y-81173580D02*
X120775314Y-80602152D01*
X121203885Y-80173580D02*
X120632457Y-80745009D01*
X131202180Y-35852076D02*
X131202180Y-36328266D01*
X131678371Y-36375885D01*
X131630752Y-36328266D01*
X131583133Y-36233028D01*
X131583133Y-35994933D01*
X131630752Y-35899695D01*
X131678371Y-35852076D01*
X131773609Y-35804457D01*
X132011704Y-35804457D01*
X132106942Y-35852076D01*
X132154561Y-35899695D01*
X132202180Y-35994933D01*
X132202180Y-36233028D01*
X132154561Y-36328266D01*
X132106942Y-36375885D01*
X131202180Y-35518742D02*
X132202180Y-35185409D01*
X131202180Y-34852076D01*
X75195371Y-64778000D02*
X75100133Y-64730380D01*
X74957276Y-64730380D01*
X74814418Y-64778000D01*
X74719180Y-64873238D01*
X74671561Y-64968476D01*
X74623942Y-65158952D01*
X74623942Y-65301809D01*
X74671561Y-65492285D01*
X74719180Y-65587523D01*
X74814418Y-65682761D01*
X74957276Y-65730380D01*
X75052514Y-65730380D01*
X75195371Y-65682761D01*
X75242990Y-65635142D01*
X75242990Y-65301809D01*
X75052514Y-65301809D01*
X75671561Y-65730380D02*
X75671561Y-64730380D01*
X76242990Y-65730380D01*
X76242990Y-64730380D01*
X76719180Y-65730380D02*
X76719180Y-64730380D01*
X76957276Y-64730380D01*
X77100133Y-64778000D01*
X77195371Y-64873238D01*
X77242990Y-64968476D01*
X77290609Y-65158952D01*
X77290609Y-65301809D01*
X77242990Y-65492285D01*
X77195371Y-65587523D01*
X77100133Y-65682761D01*
X76957276Y-65730380D01*
X76719180Y-65730380D01*
D11*
X131546704Y-105111514D02*
X131508609Y-105149609D01*
X131394323Y-105187704D01*
X131318133Y-105187704D01*
X131203847Y-105149609D01*
X131127657Y-105073419D01*
X131089561Y-104997228D01*
X131051466Y-104844847D01*
X131051466Y-104730561D01*
X131089561Y-104578180D01*
X131127657Y-104501990D01*
X131203847Y-104425800D01*
X131318133Y-104387704D01*
X131394323Y-104387704D01*
X131508609Y-104425800D01*
X131546704Y-104463895D01*
X131851466Y-104959133D02*
X132232419Y-104959133D01*
X131775276Y-105187704D02*
X132041942Y-104387704D01*
X132308609Y-105187704D01*
X132575276Y-105187704D02*
X132575276Y-104387704D01*
X133032419Y-105187704D01*
X133032419Y-104387704D01*
X133794323Y-105187704D02*
X133413371Y-105187704D01*
X133413371Y-104387704D01*
D10*
X124274390Y-81198980D02*
X124274390Y-80198980D01*
X124512485Y-80198980D01*
X124655342Y-80246600D01*
X124750580Y-80341838D01*
X124798200Y-80437076D01*
X124845819Y-80627552D01*
X124845819Y-80770409D01*
X124798200Y-80960885D01*
X124750580Y-81056123D01*
X124655342Y-81151361D01*
X124512485Y-81198980D01*
X124274390Y-81198980D01*
X125274390Y-81198980D02*
X125274390Y-80198980D01*
X125941057Y-80198980D02*
X126131533Y-80198980D01*
X126226771Y-80246600D01*
X126322009Y-80341838D01*
X126369628Y-80532314D01*
X126369628Y-80865647D01*
X126322009Y-81056123D01*
X126226771Y-81151361D01*
X126131533Y-81198980D01*
X125941057Y-81198980D01*
X125845819Y-81151361D01*
X125750580Y-81056123D01*
X125702961Y-80865647D01*
X125702961Y-80532314D01*
X125750580Y-80341838D01*
X125845819Y-80246600D01*
X125941057Y-80198980D01*
X76079457Y-104574828D02*
X76841361Y-104574828D01*
X76460409Y-104955780D02*
X76460409Y-104193876D01*
X77841361Y-104955780D02*
X77269933Y-104955780D01*
X77555647Y-104955780D02*
X77555647Y-103955780D01*
X77460409Y-104098638D01*
X77365171Y-104193876D01*
X77269933Y-104241495D01*
X74862038Y-79843380D02*
X75052514Y-79843380D01*
X75147752Y-79891000D01*
X75242990Y-79986238D01*
X75290609Y-80176714D01*
X75290609Y-80510047D01*
X75242990Y-80700523D01*
X75147752Y-80795761D01*
X75052514Y-80843380D01*
X74862038Y-80843380D01*
X74766800Y-80795761D01*
X74671561Y-80700523D01*
X74623942Y-80510047D01*
X74623942Y-80176714D01*
X74671561Y-79986238D01*
X74766800Y-79891000D01*
X74862038Y-79843380D01*
X75719180Y-79843380D02*
X75719180Y-80652904D01*
X75766800Y-80748142D01*
X75814419Y-80795761D01*
X75909657Y-80843380D01*
X76100133Y-80843380D01*
X76195371Y-80795761D01*
X76242990Y-80748142D01*
X76290609Y-80652904D01*
X76290609Y-79843380D01*
X76623942Y-79843380D02*
X77195371Y-79843380D01*
X76909657Y-80843380D02*
X76909657Y-79843380D01*
X77528704Y-80843380D02*
X77528704Y-79843380D01*
X77909657Y-79843380D01*
X78004895Y-79891000D01*
X78052514Y-79938619D01*
X78100133Y-80033857D01*
X78100133Y-80176714D01*
X78052514Y-80271952D01*
X78004895Y-80319571D01*
X77909657Y-80367190D01*
X77528704Y-80367190D01*
X78528704Y-79843380D02*
X78528704Y-80652904D01*
X78576323Y-80748142D01*
X78623942Y-80795761D01*
X78719180Y-80843380D01*
X78909657Y-80843380D01*
X79004895Y-80795761D01*
X79052514Y-80748142D01*
X79100133Y-80652904D01*
X79100133Y-79843380D01*
X79433466Y-79843380D02*
X80004895Y-79843380D01*
X79719180Y-80843380D02*
X79719180Y-79843380D01*
X136579219Y-74958380D02*
X136579219Y-73958380D01*
X136960171Y-73958380D01*
X137055409Y-74006000D01*
X137103028Y-74053619D01*
X137150647Y-74148857D01*
X137150647Y-74291714D01*
X137103028Y-74386952D01*
X137055409Y-74434571D01*
X136960171Y-74482190D01*
X136579219Y-74482190D01*
X137531600Y-74672666D02*
X138007790Y-74672666D01*
X137436361Y-74958380D02*
X137769695Y-73958380D01*
X138103028Y-74958380D01*
X138436361Y-74958380D02*
X138436361Y-73958380D01*
X139007790Y-74958380D01*
X139007790Y-73958380D01*
X139483980Y-74958380D02*
X139483980Y-73958380D01*
X140531600Y-74863142D02*
X140483980Y-74910761D01*
X140341123Y-74958380D01*
X140245885Y-74958380D01*
X140103028Y-74910761D01*
X140007790Y-74815523D01*
X139960171Y-74720285D01*
X139912552Y-74529809D01*
X139912552Y-74386952D01*
X139960171Y-74196476D01*
X140007790Y-74101238D01*
X140103028Y-74006000D01*
X140245885Y-73958380D01*
X140341123Y-73958380D01*
X140483980Y-74006000D01*
X140531600Y-74053619D01*
X136269695Y-76044571D02*
X136412552Y-76092190D01*
X136460171Y-76139809D01*
X136507790Y-76235047D01*
X136507790Y-76377904D01*
X136460171Y-76473142D01*
X136412552Y-76520761D01*
X136317314Y-76568380D01*
X135936361Y-76568380D01*
X135936361Y-75568380D01*
X136269695Y-75568380D01*
X136364933Y-75616000D01*
X136412552Y-75663619D01*
X136460171Y-75758857D01*
X136460171Y-75854095D01*
X136412552Y-75949333D01*
X136364933Y-75996952D01*
X136269695Y-76044571D01*
X135936361Y-76044571D01*
X136936361Y-75568380D02*
X136936361Y-76377904D01*
X136983980Y-76473142D01*
X137031600Y-76520761D01*
X137126838Y-76568380D01*
X137317314Y-76568380D01*
X137412552Y-76520761D01*
X137460171Y-76473142D01*
X137507790Y-76377904D01*
X137507790Y-75568380D01*
X137841123Y-75568380D02*
X138412552Y-75568380D01*
X138126838Y-76568380D02*
X138126838Y-75568380D01*
X138603028Y-75568380D02*
X139174457Y-75568380D01*
X138888742Y-76568380D02*
X138888742Y-75568380D01*
X139698266Y-75568380D02*
X139888742Y-75568380D01*
X139983980Y-75616000D01*
X140079219Y-75711238D01*
X140126838Y-75901714D01*
X140126838Y-76235047D01*
X140079219Y-76425523D01*
X139983980Y-76520761D01*
X139888742Y-76568380D01*
X139698266Y-76568380D01*
X139603028Y-76520761D01*
X139507790Y-76425523D01*
X139460171Y-76235047D01*
X139460171Y-75901714D01*
X139507790Y-75711238D01*
X139603028Y-75616000D01*
X139698266Y-75568380D01*
X140555409Y-76568380D02*
X140555409Y-75568380D01*
X141126838Y-76568380D01*
X141126838Y-75568380D01*
X134315295Y-86241000D02*
X134220057Y-86193380D01*
X134077200Y-86193380D01*
X133934342Y-86241000D01*
X133839104Y-86336238D01*
X133791485Y-86431476D01*
X133743866Y-86621952D01*
X133743866Y-86764809D01*
X133791485Y-86955285D01*
X133839104Y-87050523D01*
X133934342Y-87145761D01*
X134077200Y-87193380D01*
X134172438Y-87193380D01*
X134315295Y-87145761D01*
X134362914Y-87098142D01*
X134362914Y-86764809D01*
X134172438Y-86764809D01*
X134791485Y-87193380D02*
X134791485Y-86193380D01*
X135362914Y-87193380D01*
X135362914Y-86193380D01*
X135839104Y-87193380D02*
X135839104Y-86193380D01*
X136077200Y-86193380D01*
X136220057Y-86241000D01*
X136315295Y-86336238D01*
X136362914Y-86431476D01*
X136410533Y-86621952D01*
X136410533Y-86764809D01*
X136362914Y-86955285D01*
X136315295Y-87050523D01*
X136220057Y-87145761D01*
X136077200Y-87193380D01*
X135839104Y-87193380D01*
X70866095Y-94546800D02*
X70770857Y-94499180D01*
X70628000Y-94499180D01*
X70485142Y-94546800D01*
X70389904Y-94642038D01*
X70342285Y-94737276D01*
X70294666Y-94927752D01*
X70294666Y-95070609D01*
X70342285Y-95261085D01*
X70389904Y-95356323D01*
X70485142Y-95451561D01*
X70628000Y-95499180D01*
X70723238Y-95499180D01*
X70866095Y-95451561D01*
X70913714Y-95403942D01*
X70913714Y-95070609D01*
X70723238Y-95070609D01*
X71342285Y-95499180D02*
X71342285Y-94499180D01*
X71913714Y-95499180D01*
X71913714Y-94499180D01*
X72389904Y-95499180D02*
X72389904Y-94499180D01*
X72628000Y-94499180D01*
X72770857Y-94546800D01*
X72866095Y-94642038D01*
X72913714Y-94737276D01*
X72961333Y-94927752D01*
X72961333Y-95070609D01*
X72913714Y-95261085D01*
X72866095Y-95356323D01*
X72770857Y-95451561D01*
X72628000Y-95499180D01*
X72389904Y-95499180D01*
D11*
X136525019Y-64306504D02*
X136144066Y-64306504D01*
X136105971Y-64687457D01*
X136144066Y-64649361D01*
X136220257Y-64611266D01*
X136410733Y-64611266D01*
X136486923Y-64649361D01*
X136525019Y-64687457D01*
X136563114Y-64763647D01*
X136563114Y-64954123D01*
X136525019Y-65030314D01*
X136486923Y-65068409D01*
X136410733Y-65106504D01*
X136220257Y-65106504D01*
X136144066Y-65068409D01*
X136105971Y-65030314D01*
X136791685Y-64306504D02*
X137058352Y-65106504D01*
X137325019Y-64306504D01*
D10*
X123096400Y-36575904D02*
X123048780Y-36671142D01*
X123048780Y-36814000D01*
X123096400Y-36956857D01*
X123191638Y-37052095D01*
X123286876Y-37099714D01*
X123477352Y-37147333D01*
X123620209Y-37147333D01*
X123810685Y-37099714D01*
X123905923Y-37052095D01*
X124001161Y-36956857D01*
X124048780Y-36814000D01*
X124048780Y-36718761D01*
X124001161Y-36575904D01*
X123953542Y-36528285D01*
X123620209Y-36528285D01*
X123620209Y-36718761D01*
X124048780Y-36099714D02*
X123048780Y-36099714D01*
X124048780Y-35528285D01*
X123048780Y-35528285D01*
X124048780Y-35052095D02*
X123048780Y-35052095D01*
X123048780Y-34814000D01*
X123096400Y-34671142D01*
X123191638Y-34575904D01*
X123286876Y-34528285D01*
X123477352Y-34480666D01*
X123620209Y-34480666D01*
X123810685Y-34528285D01*
X123905923Y-34575904D01*
X124001161Y-34671142D01*
X124048780Y-34814000D01*
X124048780Y-35052095D01*
X84785295Y-57869200D02*
X84690057Y-57821580D01*
X84547200Y-57821580D01*
X84404342Y-57869200D01*
X84309104Y-57964438D01*
X84261485Y-58059676D01*
X84213866Y-58250152D01*
X84213866Y-58393009D01*
X84261485Y-58583485D01*
X84309104Y-58678723D01*
X84404342Y-58773961D01*
X84547200Y-58821580D01*
X84642438Y-58821580D01*
X84785295Y-58773961D01*
X84832914Y-58726342D01*
X84832914Y-58393009D01*
X84642438Y-58393009D01*
X85261485Y-58821580D02*
X85261485Y-57821580D01*
X85832914Y-58821580D01*
X85832914Y-57821580D01*
X86309104Y-58821580D02*
X86309104Y-57821580D01*
X86547200Y-57821580D01*
X86690057Y-57869200D01*
X86785295Y-57964438D01*
X86832914Y-58059676D01*
X86880533Y-58250152D01*
X86880533Y-58393009D01*
X86832914Y-58583485D01*
X86785295Y-58678723D01*
X86690057Y-58773961D01*
X86547200Y-58821580D01*
X86309104Y-58821580D01*
X105422866Y-97488228D02*
X106184771Y-97488228D01*
X105803819Y-97869180D02*
X105803819Y-97107276D01*
X107184771Y-97869180D02*
X106613342Y-97869180D01*
X106899057Y-97869180D02*
X106899057Y-96869180D01*
X106803819Y-97012038D01*
X106708580Y-97107276D01*
X106613342Y-97154895D01*
X108041914Y-96869180D02*
X107851438Y-96869180D01*
X107756200Y-96916800D01*
X107708580Y-96964419D01*
X107613342Y-97107276D01*
X107565723Y-97297752D01*
X107565723Y-97678704D01*
X107613342Y-97773942D01*
X107660961Y-97821561D01*
X107756200Y-97869180D01*
X107946676Y-97869180D01*
X108041914Y-97821561D01*
X108089533Y-97773942D01*
X108137152Y-97678704D01*
X108137152Y-97440609D01*
X108089533Y-97345371D01*
X108041914Y-97297752D01*
X107946676Y-97250133D01*
X107756200Y-97250133D01*
X107660961Y-97297752D01*
X107613342Y-97345371D01*
X107565723Y-97440609D01*
X90081266Y-104574828D02*
X90843171Y-104574828D01*
X90462219Y-104955780D02*
X90462219Y-104193876D01*
X91843171Y-104955780D02*
X91271742Y-104955780D01*
X91557457Y-104955780D02*
X91557457Y-103955780D01*
X91462219Y-104098638D01*
X91366980Y-104193876D01*
X91271742Y-104241495D01*
X92700314Y-103955780D02*
X92509838Y-103955780D01*
X92414600Y-104003400D01*
X92366980Y-104051019D01*
X92271742Y-104193876D01*
X92224123Y-104384352D01*
X92224123Y-104765304D01*
X92271742Y-104860542D01*
X92319361Y-104908161D01*
X92414600Y-104955780D01*
X92605076Y-104955780D01*
X92700314Y-104908161D01*
X92747933Y-104860542D01*
X92795552Y-104765304D01*
X92795552Y-104527209D01*
X92747933Y-104431971D01*
X92700314Y-104384352D01*
X92605076Y-104336733D01*
X92414600Y-104336733D01*
X92319361Y-104384352D01*
X92271742Y-104431971D01*
X92224123Y-104527209D01*
D11*
X135585276Y-67722800D02*
X135509085Y-67684704D01*
X135394800Y-67684704D01*
X135280514Y-67722800D01*
X135204323Y-67798990D01*
X135166228Y-67875180D01*
X135128133Y-68027561D01*
X135128133Y-68141847D01*
X135166228Y-68294228D01*
X135204323Y-68370419D01*
X135280514Y-68446609D01*
X135394800Y-68484704D01*
X135470990Y-68484704D01*
X135585276Y-68446609D01*
X135623371Y-68408514D01*
X135623371Y-68141847D01*
X135470990Y-68141847D01*
X135966228Y-68484704D02*
X135966228Y-67684704D01*
X136423371Y-68484704D01*
X136423371Y-67684704D01*
X136804323Y-68484704D02*
X136804323Y-67684704D01*
X136994800Y-67684704D01*
X137109085Y-67722800D01*
X137185276Y-67798990D01*
X137223371Y-67875180D01*
X137261466Y-68027561D01*
X137261466Y-68141847D01*
X137223371Y-68294228D01*
X137185276Y-68370419D01*
X137109085Y-68446609D01*
X136994800Y-68484704D01*
X136804323Y-68484704D01*
D10*
X79813257Y-104574828D02*
X80575161Y-104574828D01*
X80194209Y-104955780D02*
X80194209Y-104193876D01*
X81003733Y-104051019D02*
X81051352Y-104003400D01*
X81146590Y-103955780D01*
X81384685Y-103955780D01*
X81479923Y-104003400D01*
X81527542Y-104051019D01*
X81575161Y-104146257D01*
X81575161Y-104241495D01*
X81527542Y-104384352D01*
X80956114Y-104955780D01*
X81575161Y-104955780D01*
X83420057Y-104574828D02*
X84181961Y-104574828D01*
X83801009Y-104955780D02*
X83801009Y-104193876D01*
X85086723Y-104289114D02*
X85086723Y-104955780D01*
X84848628Y-103908161D02*
X84610533Y-104622447D01*
X85229580Y-104622447D01*
D12*
X111528171Y-106997342D02*
X111585314Y-107054485D01*
X111642457Y-107225914D01*
X111642457Y-107340200D01*
X111585314Y-107511628D01*
X111471028Y-107625914D01*
X111356742Y-107683057D01*
X111128171Y-107740200D01*
X110956742Y-107740200D01*
X110728171Y-107683057D01*
X110613885Y-107625914D01*
X110499600Y-107511628D01*
X110442457Y-107340200D01*
X110442457Y-107225914D01*
X110499600Y-107054485D01*
X110556742Y-106997342D01*
X111299600Y-106540200D02*
X111299600Y-105968771D01*
X111642457Y-106654485D02*
X110442457Y-106254485D01*
X111642457Y-105854485D01*
X111642457Y-105454485D02*
X110442457Y-105454485D01*
X111642457Y-104768771D01*
X110442457Y-104768771D01*
X111642457Y-103625914D02*
X111642457Y-104197342D01*
X110442457Y-104197342D01*
D10*
X71109200Y-46234161D02*
X71252057Y-46281780D01*
X71490152Y-46281780D01*
X71585390Y-46234161D01*
X71633009Y-46186542D01*
X71680628Y-46091304D01*
X71680628Y-45996066D01*
X71633009Y-45900828D01*
X71585390Y-45853209D01*
X71490152Y-45805590D01*
X71299676Y-45757971D01*
X71204438Y-45710352D01*
X71156819Y-45662733D01*
X71109200Y-45567495D01*
X71109200Y-45472257D01*
X71156819Y-45377019D01*
X71204438Y-45329400D01*
X71299676Y-45281780D01*
X71537771Y-45281780D01*
X71680628Y-45329400D01*
X72013961Y-45281780D02*
X72252057Y-46281780D01*
X72442533Y-45567495D01*
X72633009Y-46281780D01*
X72871104Y-45281780D01*
X73252057Y-46281780D02*
X73252057Y-45281780D01*
X73585390Y-45281780D02*
X74156819Y-45281780D01*
X73871104Y-46281780D02*
X73871104Y-45281780D01*
X75061580Y-46186542D02*
X75013961Y-46234161D01*
X74871104Y-46281780D01*
X74775866Y-46281780D01*
X74633009Y-46234161D01*
X74537771Y-46138923D01*
X74490152Y-46043685D01*
X74442533Y-45853209D01*
X74442533Y-45710352D01*
X74490152Y-45519876D01*
X74537771Y-45424638D01*
X74633009Y-45329400D01*
X74775866Y-45281780D01*
X74871104Y-45281780D01*
X75013961Y-45329400D01*
X75061580Y-45377019D01*
X75490152Y-46281780D02*
X75490152Y-45281780D01*
X75490152Y-45757971D02*
X76061580Y-45757971D01*
X76061580Y-46281780D02*
X76061580Y-45281780D01*
X71085390Y-46891780D02*
X71275866Y-46891780D01*
X71371104Y-46939400D01*
X71466342Y-47034638D01*
X71513961Y-47225114D01*
X71513961Y-47558447D01*
X71466342Y-47748923D01*
X71371104Y-47844161D01*
X71275866Y-47891780D01*
X71085390Y-47891780D01*
X70990152Y-47844161D01*
X70894914Y-47748923D01*
X70847295Y-47558447D01*
X70847295Y-47225114D01*
X70894914Y-47034638D01*
X70990152Y-46939400D01*
X71085390Y-46891780D01*
X71942533Y-47891780D02*
X71942533Y-46891780D01*
X72513961Y-47891780D01*
X72513961Y-46891780D01*
X73704438Y-46844161D02*
X72847295Y-48129876D01*
X74228247Y-46891780D02*
X74418723Y-46891780D01*
X74513961Y-46939400D01*
X74609200Y-47034638D01*
X74656819Y-47225114D01*
X74656819Y-47558447D01*
X74609200Y-47748923D01*
X74513961Y-47844161D01*
X74418723Y-47891780D01*
X74228247Y-47891780D01*
X74133009Y-47844161D01*
X74037771Y-47748923D01*
X73990152Y-47558447D01*
X73990152Y-47225114D01*
X74037771Y-47034638D01*
X74133009Y-46939400D01*
X74228247Y-46891780D01*
X75418723Y-47367971D02*
X75085390Y-47367971D01*
X75085390Y-47891780D02*
X75085390Y-46891780D01*
X75561580Y-46891780D01*
X76275866Y-47367971D02*
X75942533Y-47367971D01*
X75942533Y-47891780D02*
X75942533Y-46891780D01*
X76418723Y-46891780D01*
X77627219Y-37156876D02*
X77579600Y-37109257D01*
X77531980Y-37014019D01*
X77531980Y-36775923D01*
X77579600Y-36680685D01*
X77627219Y-36633066D01*
X77722457Y-36585447D01*
X77817695Y-36585447D01*
X77960552Y-36633066D01*
X78531980Y-37204495D01*
X78531980Y-36585447D01*
X77865314Y-35728304D02*
X78531980Y-35728304D01*
X77484361Y-35966400D02*
X78198647Y-36204495D01*
X78198647Y-35585447D01*
X77531980Y-35347352D02*
X78531980Y-35014019D01*
X77531980Y-34680685D01*
X100666657Y-97488228D02*
X101428561Y-97488228D01*
X101047609Y-97869180D02*
X101047609Y-97107276D01*
X102333323Y-97202514D02*
X102333323Y-97869180D01*
X102095228Y-96821561D02*
X101857133Y-97535847D01*
X102476180Y-97535847D01*
X74671561Y-60929780D02*
X74671561Y-59929780D01*
X75147752Y-60929780D02*
X75147752Y-59929780D01*
X75719180Y-60929780D01*
X75719180Y-59929780D01*
X76195371Y-60929780D02*
X76195371Y-59929780D01*
X76576323Y-59929780D01*
X76671561Y-59977400D01*
X76719180Y-60025019D01*
X76766799Y-60120257D01*
X76766799Y-60263114D01*
X76719180Y-60358352D01*
X76671561Y-60405971D01*
X76576323Y-60453590D01*
X76195371Y-60453590D01*
X77195371Y-59929780D02*
X77195371Y-60739304D01*
X77242990Y-60834542D01*
X77290609Y-60882161D01*
X77385847Y-60929780D01*
X77576323Y-60929780D01*
X77671561Y-60882161D01*
X77719180Y-60834542D01*
X77766799Y-60739304D01*
X77766799Y-59929780D01*
X78100133Y-59929780D02*
X78671561Y-59929780D01*
X78385847Y-60929780D02*
X78385847Y-59929780D01*
D11*
X135083161Y-97010600D02*
X134987923Y-96962980D01*
X134845066Y-96962980D01*
X134702208Y-97010600D01*
X134606970Y-97105838D01*
X134559351Y-97201076D01*
X134511732Y-97391552D01*
X134511732Y-97534409D01*
X134559351Y-97724885D01*
X134606970Y-97820123D01*
X134702208Y-97915361D01*
X134845066Y-97962980D01*
X134940304Y-97962980D01*
X135083161Y-97915361D01*
X135130780Y-97867742D01*
X135130780Y-97534409D01*
X134940304Y-97534409D01*
X135559351Y-97962980D02*
X135559351Y-96962980D01*
X136130780Y-97962980D01*
X136130780Y-96962980D01*
X136606970Y-97962980D02*
X136606970Y-96962980D01*
X136845066Y-96962980D01*
X136987923Y-97010600D01*
X137083161Y-97105838D01*
X137130780Y-97201076D01*
X137178399Y-97391552D01*
X137178399Y-97534409D01*
X137130780Y-97724885D01*
X137083161Y-97820123D01*
X136987923Y-97915361D01*
X136845066Y-97962980D01*
X136606970Y-97962980D01*
D12*
X87411142Y-88096657D02*
X87011142Y-87525228D01*
X86725428Y-88096657D02*
X86725428Y-86896657D01*
X87182571Y-86896657D01*
X87296857Y-86953800D01*
X87354000Y-87010942D01*
X87411142Y-87125228D01*
X87411142Y-87296657D01*
X87354000Y-87410942D01*
X87296857Y-87468085D01*
X87182571Y-87525228D01*
X86725428Y-87525228D01*
X87925428Y-87468085D02*
X88325428Y-87468085D01*
X88496857Y-88096657D02*
X87925428Y-88096657D01*
X87925428Y-86896657D01*
X88496857Y-86896657D01*
X88954000Y-88039514D02*
X89125428Y-88096657D01*
X89411142Y-88096657D01*
X89525428Y-88039514D01*
X89582571Y-87982371D01*
X89639714Y-87868085D01*
X89639714Y-87753800D01*
X89582571Y-87639514D01*
X89525428Y-87582371D01*
X89411142Y-87525228D01*
X89182571Y-87468085D01*
X89068285Y-87410942D01*
X89011142Y-87353800D01*
X88954000Y-87239514D01*
X88954000Y-87125228D01*
X89011142Y-87010942D01*
X89068285Y-86953800D01*
X89182571Y-86896657D01*
X89468285Y-86896657D01*
X89639714Y-86953800D01*
X90154000Y-87468085D02*
X90554000Y-87468085D01*
X90725428Y-88096657D02*
X90154000Y-88096657D01*
X90154000Y-86896657D01*
X90725428Y-86896657D01*
X91068285Y-86896657D02*
X91754000Y-86896657D01*
X91411142Y-88096657D02*
X91411142Y-86896657D01*
D10*
X97999657Y-97488228D02*
X98761561Y-97488228D01*
X98380609Y-97869180D02*
X98380609Y-97107276D01*
X99190133Y-96964419D02*
X99237752Y-96916800D01*
X99332990Y-96869180D01*
X99571085Y-96869180D01*
X99666323Y-96916800D01*
X99713942Y-96964419D01*
X99761561Y-97059657D01*
X99761561Y-97154895D01*
X99713942Y-97297752D01*
X99142514Y-97869180D01*
X99761561Y-97869180D01*
X74498295Y-53144800D02*
X74403057Y-53097180D01*
X74260200Y-53097180D01*
X74117342Y-53144800D01*
X74022104Y-53240038D01*
X73974485Y-53335276D01*
X73926866Y-53525752D01*
X73926866Y-53668609D01*
X73974485Y-53859085D01*
X74022104Y-53954323D01*
X74117342Y-54049561D01*
X74260200Y-54097180D01*
X74355438Y-54097180D01*
X74498295Y-54049561D01*
X74545914Y-54001942D01*
X74545914Y-53668609D01*
X74355438Y-53668609D01*
X74974485Y-54097180D02*
X74974485Y-53097180D01*
X75545914Y-54097180D01*
X75545914Y-53097180D01*
X76022104Y-54097180D02*
X76022104Y-53097180D01*
X76260200Y-53097180D01*
X76403057Y-53144800D01*
X76498295Y-53240038D01*
X76545914Y-53335276D01*
X76593533Y-53525752D01*
X76593533Y-53668609D01*
X76545914Y-53859085D01*
X76498295Y-53954323D01*
X76403057Y-54049561D01*
X76260200Y-54097180D01*
X76022104Y-54097180D01*
D13*
X92475085Y-98907790D02*
X92475085Y-101955409D01*
X91713180Y-101193504D02*
X92475085Y-101955409D01*
X93236990Y-101193504D01*
D11*
X127616066Y-105086114D02*
X127577971Y-105124209D01*
X127463685Y-105162304D01*
X127387495Y-105162304D01*
X127273209Y-105124209D01*
X127197019Y-105048019D01*
X127158923Y-104971828D01*
X127120828Y-104819447D01*
X127120828Y-104705161D01*
X127158923Y-104552780D01*
X127197019Y-104476590D01*
X127273209Y-104400400D01*
X127387495Y-104362304D01*
X127463685Y-104362304D01*
X127577971Y-104400400D01*
X127616066Y-104438495D01*
X127920828Y-104933733D02*
X128301780Y-104933733D01*
X127844638Y-105162304D02*
X128111304Y-104362304D01*
X128377971Y-105162304D01*
X128644638Y-105162304D02*
X128644638Y-104362304D01*
X129101780Y-105162304D01*
X129101780Y-104362304D01*
X129482733Y-105162304D02*
X129482733Y-104362304D01*
X129482733Y-104743257D02*
X129939876Y-104743257D01*
X129939876Y-105162304D02*
X129939876Y-104362304D01*
X135039247Y-71342304D02*
X135534485Y-71342304D01*
X135267819Y-71647066D01*
X135382104Y-71647066D01*
X135458295Y-71685161D01*
X135496390Y-71723257D01*
X135534485Y-71799447D01*
X135534485Y-71989923D01*
X135496390Y-72066114D01*
X135458295Y-72104209D01*
X135382104Y-72142304D01*
X135153533Y-72142304D01*
X135077342Y-72104209D01*
X135039247Y-72066114D01*
X135877342Y-72066114D02*
X135915438Y-72104209D01*
X135877342Y-72142304D01*
X135839247Y-72104209D01*
X135877342Y-72066114D01*
X135877342Y-72142304D01*
X136182104Y-71342304D02*
X136677342Y-71342304D01*
X136410676Y-71647066D01*
X136524961Y-71647066D01*
X136601152Y-71685161D01*
X136639247Y-71723257D01*
X136677342Y-71799447D01*
X136677342Y-71989923D01*
X136639247Y-72066114D01*
X136601152Y-72104209D01*
X136524961Y-72142304D01*
X136296390Y-72142304D01*
X136220200Y-72104209D01*
X136182104Y-72066114D01*
X136905914Y-71342304D02*
X137172580Y-72142304D01*
X137439247Y-71342304D01*
D10*
X74987495Y-56317961D02*
X75130352Y-56365580D01*
X75368447Y-56365580D01*
X75463685Y-56317961D01*
X75511304Y-56270342D01*
X75558923Y-56175104D01*
X75558923Y-56079866D01*
X75511304Y-55984628D01*
X75463685Y-55937009D01*
X75368447Y-55889390D01*
X75177971Y-55841771D01*
X75082733Y-55794152D01*
X75035114Y-55746533D01*
X74987495Y-55651295D01*
X74987495Y-55556057D01*
X75035114Y-55460819D01*
X75082733Y-55413200D01*
X75177971Y-55365580D01*
X75416066Y-55365580D01*
X75558923Y-55413200D01*
X75987495Y-55841771D02*
X76320828Y-55841771D01*
X76463685Y-56365580D02*
X75987495Y-56365580D01*
X75987495Y-55365580D01*
X76463685Y-55365580D01*
X76892257Y-56365580D02*
X76892257Y-55365580D01*
X77463685Y-56365580D01*
X77463685Y-55365580D01*
X77892257Y-56317961D02*
X78035114Y-56365580D01*
X78273209Y-56365580D01*
X78368447Y-56317961D01*
X78416066Y-56270342D01*
X78463685Y-56175104D01*
X78463685Y-56079866D01*
X78416066Y-55984628D01*
X78368447Y-55937009D01*
X78273209Y-55889390D01*
X78082733Y-55841771D01*
X77987495Y-55794152D01*
X77939876Y-55746533D01*
X77892257Y-55651295D01*
X77892257Y-55556057D01*
X77939876Y-55460819D01*
X77987495Y-55413200D01*
X78082733Y-55365580D01*
X78320828Y-55365580D01*
X78463685Y-55413200D01*
X79082733Y-55365580D02*
X79273209Y-55365580D01*
X79368447Y-55413200D01*
X79463685Y-55508438D01*
X79511304Y-55698914D01*
X79511304Y-56032247D01*
X79463685Y-56222723D01*
X79368447Y-56317961D01*
X79273209Y-56365580D01*
X79082733Y-56365580D01*
X78987495Y-56317961D01*
X78892257Y-56222723D01*
X78844638Y-56032247D01*
X78844638Y-55698914D01*
X78892257Y-55508438D01*
X78987495Y-55413200D01*
X79082733Y-55365580D01*
X80511304Y-56365580D02*
X80177971Y-55889390D01*
X79939876Y-56365580D02*
X79939876Y-55365580D01*
X80320828Y-55365580D01*
X80416066Y-55413200D01*
X80463685Y-55460819D01*
X80511304Y-55556057D01*
X80511304Y-55698914D01*
X80463685Y-55794152D01*
X80416066Y-55841771D01*
X80320828Y-55889390D01*
X79939876Y-55889390D01*
X75939876Y-57975580D02*
X75939876Y-56975580D01*
X76177971Y-56975580D01*
X76320828Y-57023200D01*
X76416066Y-57118438D01*
X76463685Y-57213676D01*
X76511304Y-57404152D01*
X76511304Y-57547009D01*
X76463685Y-57737485D01*
X76416066Y-57832723D01*
X76320828Y-57927961D01*
X76177971Y-57975580D01*
X75939876Y-57975580D01*
X77130352Y-56975580D02*
X77320828Y-56975580D01*
X77416066Y-57023200D01*
X77511304Y-57118438D01*
X77558923Y-57308914D01*
X77558923Y-57642247D01*
X77511304Y-57832723D01*
X77416066Y-57927961D01*
X77320828Y-57975580D01*
X77130352Y-57975580D01*
X77035114Y-57927961D01*
X76939876Y-57832723D01*
X76892257Y-57642247D01*
X76892257Y-57308914D01*
X76939876Y-57118438D01*
X77035114Y-57023200D01*
X77130352Y-56975580D01*
X78177971Y-56975580D02*
X78368447Y-56975580D01*
X78463685Y-57023200D01*
X78558923Y-57118438D01*
X78606542Y-57308914D01*
X78606542Y-57642247D01*
X78558923Y-57832723D01*
X78463685Y-57927961D01*
X78368447Y-57975580D01*
X78177971Y-57975580D01*
X78082733Y-57927961D01*
X77987495Y-57832723D01*
X77939876Y-57642247D01*
X77939876Y-57308914D01*
X77987495Y-57118438D01*
X78082733Y-57023200D01*
X78177971Y-56975580D01*
X79606542Y-57975580D02*
X79273209Y-57499390D01*
X79035114Y-57975580D02*
X79035114Y-56975580D01*
X79416066Y-56975580D01*
X79511304Y-57023200D01*
X79558923Y-57070819D01*
X79606542Y-57166057D01*
X79606542Y-57308914D01*
X79558923Y-57404152D01*
X79511304Y-57451771D01*
X79416066Y-57499390D01*
X79035114Y-57499390D01*
X121894695Y-85555200D02*
X121799457Y-85507580D01*
X121656600Y-85507580D01*
X121513742Y-85555200D01*
X121418504Y-85650438D01*
X121370885Y-85745676D01*
X121323266Y-85936152D01*
X121323266Y-86079009D01*
X121370885Y-86269485D01*
X121418504Y-86364723D01*
X121513742Y-86459961D01*
X121656600Y-86507580D01*
X121751838Y-86507580D01*
X121894695Y-86459961D01*
X121942314Y-86412342D01*
X121942314Y-86079009D01*
X121751838Y-86079009D01*
X122370885Y-86507580D02*
X122370885Y-85507580D01*
X122942314Y-86507580D01*
X122942314Y-85507580D01*
X123418504Y-86507580D02*
X123418504Y-85507580D01*
X123656600Y-85507580D01*
X123799457Y-85555200D01*
X123894695Y-85650438D01*
X123942314Y-85745676D01*
X123989933Y-85936152D01*
X123989933Y-86079009D01*
X123942314Y-86269485D01*
X123894695Y-86364723D01*
X123799457Y-86459961D01*
X123656600Y-86507580D01*
X123418504Y-86507580D01*
X83357980Y-65370009D02*
X83357980Y-65846200D01*
X82357980Y-65846200D01*
X82357980Y-65179533D02*
X83357980Y-64846200D01*
X82357980Y-64512866D01*
X83357980Y-63703342D02*
X83357980Y-64179533D01*
X82357980Y-64179533D01*
X70834476Y-85804180D02*
X70834476Y-84804180D01*
X71072571Y-84804180D01*
X71215428Y-84851800D01*
X71310666Y-84947038D01*
X71358285Y-85042276D01*
X71405904Y-85232752D01*
X71405904Y-85375609D01*
X71358285Y-85566085D01*
X71310666Y-85661323D01*
X71215428Y-85756561D01*
X71072571Y-85804180D01*
X70834476Y-85804180D01*
X72024952Y-84804180D02*
X72215428Y-84804180D01*
X72310666Y-84851800D01*
X72405904Y-84947038D01*
X72453523Y-85137514D01*
X72453523Y-85470847D01*
X72405904Y-85661323D01*
X72310666Y-85756561D01*
X72215428Y-85804180D01*
X72024952Y-85804180D01*
X71929714Y-85756561D01*
X71834476Y-85661323D01*
X71786857Y-85470847D01*
X71786857Y-85137514D01*
X71834476Y-84947038D01*
X71929714Y-84851800D01*
X72024952Y-84804180D01*
X73072571Y-84804180D02*
X73263047Y-84804180D01*
X73358285Y-84851800D01*
X73453523Y-84947038D01*
X73501142Y-85137514D01*
X73501142Y-85470847D01*
X73453523Y-85661323D01*
X73358285Y-85756561D01*
X73263047Y-85804180D01*
X73072571Y-85804180D01*
X72977333Y-85756561D01*
X72882095Y-85661323D01*
X72834476Y-85470847D01*
X72834476Y-85137514D01*
X72882095Y-84947038D01*
X72977333Y-84851800D01*
X73072571Y-84804180D01*
X74501142Y-85804180D02*
X74167809Y-85327990D01*
X73929714Y-85804180D02*
X73929714Y-84804180D01*
X74310666Y-84804180D01*
X74405904Y-84851800D01*
X74453523Y-84899419D01*
X74501142Y-84994657D01*
X74501142Y-85137514D01*
X74453523Y-85232752D01*
X74405904Y-85280371D01*
X74310666Y-85327990D01*
X73929714Y-85327990D01*
X70239238Y-86414180D02*
X70429714Y-86414180D01*
X70524952Y-86461800D01*
X70620190Y-86557038D01*
X70667809Y-86747514D01*
X70667809Y-87080847D01*
X70620190Y-87271323D01*
X70524952Y-87366561D01*
X70429714Y-87414180D01*
X70239238Y-87414180D01*
X70144000Y-87366561D01*
X70048761Y-87271323D01*
X70001142Y-87080847D01*
X70001142Y-86747514D01*
X70048761Y-86557038D01*
X70144000Y-86461800D01*
X70239238Y-86414180D01*
X71096380Y-86414180D02*
X71096380Y-87223704D01*
X71144000Y-87318942D01*
X71191619Y-87366561D01*
X71286857Y-87414180D01*
X71477333Y-87414180D01*
X71572571Y-87366561D01*
X71620190Y-87318942D01*
X71667809Y-87223704D01*
X71667809Y-86414180D01*
X72001142Y-86414180D02*
X72572571Y-86414180D01*
X72286857Y-87414180D02*
X72286857Y-86414180D01*
X72905904Y-87414180D02*
X72905904Y-86414180D01*
X73286857Y-86414180D01*
X73382095Y-86461800D01*
X73429714Y-86509419D01*
X73477333Y-86604657D01*
X73477333Y-86747514D01*
X73429714Y-86842752D01*
X73382095Y-86890371D01*
X73286857Y-86937990D01*
X72905904Y-86937990D01*
X73905904Y-86414180D02*
X73905904Y-87223704D01*
X73953523Y-87318942D01*
X74001142Y-87366561D01*
X74096380Y-87414180D01*
X74286857Y-87414180D01*
X74382095Y-87366561D01*
X74429714Y-87318942D01*
X74477333Y-87223704D01*
X74477333Y-86414180D01*
X74810666Y-86414180D02*
X75382095Y-86414180D01*
X75096380Y-87414180D02*
X75096380Y-86414180D01*
D12*
X122933000Y-103273171D02*
X122875857Y-103330314D01*
X122704428Y-103387457D01*
X122590142Y-103387457D01*
X122418714Y-103330314D01*
X122304428Y-103216028D01*
X122247285Y-103101742D01*
X122190142Y-102873171D01*
X122190142Y-102701742D01*
X122247285Y-102473171D01*
X122304428Y-102358885D01*
X122418714Y-102244600D01*
X122590142Y-102187457D01*
X122704428Y-102187457D01*
X122875857Y-102244600D01*
X122933000Y-102301742D01*
X123390142Y-103044600D02*
X123961571Y-103044600D01*
X123275857Y-103387457D02*
X123675857Y-102187457D01*
X124075857Y-103387457D01*
X124475857Y-103387457D02*
X124475857Y-102187457D01*
X125161571Y-103387457D01*
X125161571Y-102187457D01*
X125733000Y-103387457D02*
X125733000Y-102187457D01*
X125733000Y-102758885D02*
X126418714Y-102758885D01*
X126418714Y-103387457D02*
X126418714Y-102187457D01*
D10*
X103181257Y-97488228D02*
X103943161Y-97488228D01*
X103562209Y-97869180D02*
X103562209Y-97107276D01*
X104562209Y-97297752D02*
X104466971Y-97250133D01*
X104419352Y-97202514D01*
X104371733Y-97107276D01*
X104371733Y-97059657D01*
X104419352Y-96964419D01*
X104466971Y-96916800D01*
X104562209Y-96869180D01*
X104752685Y-96869180D01*
X104847923Y-96916800D01*
X104895542Y-96964419D01*
X104943161Y-97059657D01*
X104943161Y-97107276D01*
X104895542Y-97202514D01*
X104847923Y-97250133D01*
X104752685Y-97297752D01*
X104562209Y-97297752D01*
X104466971Y-97345371D01*
X104419352Y-97392990D01*
X104371733Y-97488228D01*
X104371733Y-97678704D01*
X104419352Y-97773942D01*
X104466971Y-97821561D01*
X104562209Y-97869180D01*
X104752685Y-97869180D01*
X104847923Y-97821561D01*
X104895542Y-97773942D01*
X104943161Y-97678704D01*
X104943161Y-97488228D01*
X104895542Y-97392990D01*
X104847923Y-97345371D01*
X104752685Y-97297752D01*
X95485057Y-97488228D02*
X96246961Y-97488228D01*
X95866009Y-97869180D02*
X95866009Y-97107276D01*
X97246961Y-97869180D02*
X96675533Y-97869180D01*
X96961247Y-97869180D02*
X96961247Y-96869180D01*
X96866009Y-97012038D01*
X96770771Y-97107276D01*
X96675533Y-97154895D01*
X135581971Y-93873580D02*
X135105781Y-93873580D01*
X135105781Y-92873580D01*
X135772447Y-92873580D02*
X136105781Y-93873580D01*
X136439114Y-92873580D01*
X137248638Y-93873580D02*
X136772447Y-93873580D01*
X136772447Y-92873580D01*
X93641800Y-34925095D02*
X93689419Y-34829857D01*
X93689419Y-34687000D01*
X93641800Y-34544142D01*
X93546561Y-34448904D01*
X93451323Y-34401285D01*
X93260847Y-34353666D01*
X93117990Y-34353666D01*
X92927514Y-34401285D01*
X92832276Y-34448904D01*
X92737038Y-34544142D01*
X92689419Y-34687000D01*
X92689419Y-34782238D01*
X92737038Y-34925095D01*
X92784657Y-34972714D01*
X93117990Y-34972714D01*
X93117990Y-34782238D01*
X92689419Y-35401285D02*
X93689419Y-35401285D01*
X92689419Y-35972714D01*
X93689419Y-35972714D01*
X92689419Y-36448904D02*
X93689419Y-36448904D01*
X93689419Y-36687000D01*
X93641800Y-36829857D01*
X93546561Y-36925095D01*
X93451323Y-36972714D01*
X93260847Y-37020333D01*
X93117990Y-37020333D01*
X92927514Y-36972714D01*
X92832276Y-36925095D01*
X92737038Y-36829857D01*
X92689419Y-36687000D01*
X92689419Y-36448904D01*
D14*
X81229000Y-74686800D02*
X85929000Y-74686800D01*
X98519000Y-69686800D02*
X78519000Y-69686800D01*
X78519000Y-72516800D02*
X78519000Y-69686800D01*
X98519000Y-72516800D02*
X98519000Y-69686800D01*
X88849000Y-74686800D02*
X93549000Y-74686800D01*
D11*
X99419000Y-73986800D02*
G75*
G03*
X99419000Y-73986800I-100000J0D01*
G01*
D15*
X137247600Y-77985600D02*
X137247600Y-90365600D01*
X137247600Y-77985600D02*
X141262600Y-77978000D01*
X137248500Y-90377000D02*
X141263500Y-90369400D01*
X117657200Y-86582364D02*
X117657200Y-86798036D01*
X116937200Y-86582364D02*
X116937200Y-86798036D01*
X97202164Y-88184400D02*
X97417836Y-88184400D01*
X97202164Y-88904400D02*
X97417836Y-88904400D01*
X121686000Y-98374200D02*
X121686000Y-100324200D01*
X116566000Y-98374200D02*
X116566000Y-96424200D01*
X116566000Y-98374200D02*
X116566000Y-100324200D01*
X121686000Y-98374200D02*
X121686000Y-94924200D01*
X84329600Y-77126100D02*
X84329600Y-79411100D01*
X85799600Y-79411100D02*
X85799600Y-77126100D01*
X85799600Y-77126100D02*
X84329600Y-77126100D01*
X86671000Y-64846200D02*
G75*
G03*
X86671000Y-64846200I-1200000J0D01*
G01*
X88680058Y-83047100D02*
X88205542Y-83047100D01*
X88680058Y-82002100D02*
X88205542Y-82002100D01*
X90028200Y-78917800D02*
X90028200Y-78267800D01*
X86908200Y-78917800D02*
X86908200Y-78267800D01*
X86908200Y-78917800D02*
X86908200Y-80592800D01*
X90028200Y-78917800D02*
X90028200Y-79567800D01*
X133678200Y-82104620D02*
X133678200Y-82385780D01*
X134698200Y-82104620D02*
X134698200Y-82385780D01*
X84582000Y-39547800D02*
X84582000Y-40487600D01*
X105439800Y-86594836D02*
X105439800Y-86379164D01*
X104719800Y-86594836D02*
X104719800Y-86379164D01*
X84542100Y-81906342D02*
X84542100Y-82380858D01*
X85587100Y-81906342D02*
X85587100Y-82380858D01*
X85842464Y-46486400D02*
X84388336Y-46486400D01*
X85842464Y-48306400D02*
X84388336Y-48306400D01*
X73660900Y-71344800D02*
X69645900Y-71352400D01*
X73661800Y-83736200D02*
X69646800Y-83743800D01*
X73661800Y-83736200D02*
X73661800Y-71356200D01*
X99308800Y-105636600D02*
X99308800Y-104283267D01*
X94023800Y-108556600D02*
X94023800Y-98656600D01*
X106808800Y-105636600D02*
X106808800Y-104283267D01*
X95808800Y-105636600D02*
X97078800Y-105636600D01*
X107048800Y-105636600D02*
X107048800Y-104283267D01*
X104148800Y-105636600D02*
X104148800Y-104283267D01*
X102088800Y-105636600D02*
X102088800Y-104283267D01*
X96648800Y-105636600D02*
X96648800Y-104283267D01*
X96168800Y-105636600D02*
X96168800Y-104283267D01*
X101848800Y-105636600D02*
X101848800Y-104283267D01*
X103788800Y-105636600D02*
X103788800Y-104283267D01*
X104388800Y-105636600D02*
X104388800Y-104283267D01*
X103668800Y-105636600D02*
X103668800Y-104283267D01*
X105968800Y-104283267D02*
X107238800Y-104283267D01*
X98468800Y-105636600D02*
X98468800Y-104283267D01*
X95808800Y-101576600D02*
X95808800Y-105636600D01*
X101368800Y-105636600D02*
X101368800Y-104283267D01*
X96288800Y-105636600D02*
X96288800Y-104283267D01*
X96888800Y-105636600D02*
X96888800Y-104283267D01*
X106568800Y-105636600D02*
X106568800Y-104283267D01*
X100888800Y-101576600D02*
X100888800Y-105636600D01*
X93783800Y-108796600D02*
X93783800Y-107412600D01*
X97078800Y-105636600D02*
X97078800Y-101576600D01*
X105968800Y-105636600D02*
X107238800Y-105636600D01*
X106928800Y-105636600D02*
X106928800Y-104283267D01*
X104698800Y-105636600D02*
X104698800Y-101576600D01*
X104028800Y-105636600D02*
X104028800Y-104283267D01*
X98348800Y-104283267D02*
X99618800Y-104283267D01*
X93783800Y-108796600D02*
X95166800Y-108796600D01*
X94023800Y-108556600D02*
X109023800Y-108556600D01*
X98348800Y-101576600D02*
X98348800Y-105636600D01*
X101248800Y-105636600D02*
X101248800Y-104283267D01*
X106208800Y-105636600D02*
X106208800Y-104283267D01*
X98708800Y-105636600D02*
X98708800Y-104283267D01*
X98828800Y-105636600D02*
X98828800Y-104283267D01*
X109023800Y-108556600D02*
X109023800Y-98656600D01*
X104268800Y-105636600D02*
X104268800Y-104283267D01*
X101728800Y-105636600D02*
X101728800Y-104283267D01*
X101488800Y-105636600D02*
X101488800Y-104283267D01*
X105968800Y-101576600D02*
X105968800Y-105636600D01*
X103428800Y-101576600D02*
X103428800Y-105636600D01*
X101128800Y-105636600D02*
X101128800Y-104283267D01*
X99548800Y-105636600D02*
X99548800Y-104283267D01*
X101968800Y-105636600D02*
X101968800Y-104283267D01*
X96408800Y-105636600D02*
X96408800Y-104283267D01*
X96528800Y-105636600D02*
X96528800Y-104283267D01*
X97078800Y-101576600D02*
X95808800Y-101576600D01*
X106328800Y-105636600D02*
X106328800Y-104283267D01*
X104698800Y-101576600D02*
X103428800Y-101576600D01*
X103428800Y-105636600D02*
X104698800Y-105636600D01*
X96768800Y-105636600D02*
X96768800Y-104283267D01*
X106688800Y-105636600D02*
X106688800Y-104283267D01*
X106088800Y-105636600D02*
X106088800Y-104283267D01*
X100888800Y-105636600D02*
X102158800Y-105636600D01*
X98948800Y-105636600D02*
X98948800Y-104283267D01*
X101008800Y-105636600D02*
X101008800Y-104283267D01*
X99188800Y-105636600D02*
X99188800Y-104283267D01*
X99618800Y-101576600D02*
X98348800Y-101576600D01*
X94023800Y-98656600D02*
X109023800Y-98656600D01*
X99068800Y-105636600D02*
X99068800Y-104283267D01*
X107168800Y-105636600D02*
X107168800Y-104283267D01*
X101608800Y-105636600D02*
X101608800Y-104283267D01*
X103428800Y-104283267D02*
X104698800Y-104283267D01*
X96048800Y-105636600D02*
X96048800Y-104283267D01*
X107238800Y-101576600D02*
X105968800Y-101576600D01*
X103908800Y-105636600D02*
X103908800Y-104283267D01*
X95808800Y-104283267D02*
X97078800Y-104283267D01*
X99618800Y-105636600D02*
X99618800Y-101576600D01*
X102158800Y-105636600D02*
X102158800Y-101576600D01*
X107238800Y-105636600D02*
X107238800Y-101576600D01*
X99428800Y-105636600D02*
X99428800Y-104283267D01*
X106448800Y-105636600D02*
X106448800Y-104283267D01*
X102158800Y-101576600D02*
X100888800Y-101576600D01*
X97008800Y-105636600D02*
X97008800Y-104283267D01*
X104508800Y-105636600D02*
X104508800Y-104283267D01*
X95928800Y-105636600D02*
X95928800Y-104283267D01*
X98348800Y-105636600D02*
X99618800Y-105636600D01*
X103548800Y-105636600D02*
X103548800Y-104283267D01*
X100888800Y-104283267D02*
X102158800Y-104283267D01*
X98588800Y-105636600D02*
X98588800Y-104283267D01*
X104628800Y-105636600D02*
X104628800Y-104283267D01*
X72802600Y-50088800D02*
G75*
G03*
X72802600Y-50088800I-1200000J0D01*
G01*
X85578800Y-107111800D02*
G75*
G03*
X85578800Y-107111800I-1200000J0D01*
G01*
X125265200Y-104112800D02*
X112885200Y-104112800D01*
X125265200Y-104112800D02*
X125272800Y-108127800D01*
X112873800Y-104113700D02*
X112881400Y-108128700D01*
X119018164Y-93162800D02*
X119233836Y-93162800D01*
X119018164Y-93882800D02*
X119233836Y-93882800D01*
X104926400Y-57153600D02*
X101626400Y-57153600D01*
X104926400Y-57153600D02*
X104926400Y-62553600D01*
X101626400Y-57153600D02*
X101626400Y-62553600D01*
X92690800Y-107111800D02*
G75*
G03*
X92690800Y-107111800I-1200000J0D01*
G01*
X91270858Y-65212700D02*
X90796342Y-65212700D01*
X91270858Y-66257700D02*
X90796342Y-66257700D01*
X109211800Y-45164800D02*
X109211800Y-50289800D01*
X108261800Y-43664800D02*
X108261800Y-45164800D01*
X108261800Y-45164800D02*
X109211800Y-45164800D01*
X117711800Y-45164800D02*
X117711800Y-46264800D01*
X118661800Y-45164800D02*
X117711800Y-45164800D01*
X118661800Y-43664800D02*
X118661800Y-45164800D01*
X79382600Y-37949400D02*
X91762600Y-37949400D01*
X91774000Y-37948500D02*
X91766400Y-33933500D01*
X79382600Y-37949400D02*
X79375000Y-33934400D01*
X124417800Y-58259600D02*
X124417800Y-57009600D01*
X122882237Y-56769600D02*
X121817800Y-55705163D01*
X132537800Y-55705163D02*
X132537800Y-46049600D01*
X123792800Y-57634600D02*
X125042800Y-57634600D01*
X122882237Y-56769600D02*
X125667800Y-56769600D01*
X121817800Y-55705163D02*
X121817800Y-46049600D01*
X121817800Y-46049600D02*
X125667800Y-46049600D01*
X131473363Y-56769600D02*
X132537800Y-55705163D01*
X131473363Y-56769600D02*
X128687800Y-56769600D01*
X132537800Y-46049600D02*
X128687800Y-46049600D01*
D14*
X86665600Y-90336200D02*
X86665600Y-92696200D01*
X91765600Y-92696200D02*
X91765600Y-90336200D01*
X86965600Y-88966200D02*
X91465600Y-88966200D01*
X86965600Y-94066200D02*
X91465600Y-94066200D01*
D11*
X93565600Y-93391200D02*
G75*
G03*
X93565600Y-93391200I-100000J0D01*
G01*
D15*
X140417400Y-97510600D02*
G75*
G03*
X140417400Y-97510600I-1200000J0D01*
G01*
D16*
X107186400Y-64847800D02*
X119686400Y-64847800D01*
X107186400Y-64847800D02*
X107186400Y-61697801D01*
X119686400Y-55497801D02*
X119686400Y-52347800D01*
X119686400Y-64847800D02*
X119686400Y-61697801D01*
X107186400Y-55497801D02*
X107186400Y-52347800D01*
X107186400Y-52347800D02*
X119686400Y-52347800D01*
D15*
X127259000Y-95113800D02*
X124659000Y-95113800D01*
X127259000Y-95113800D02*
X127259000Y-97773800D01*
X127259000Y-97773800D02*
X124659000Y-97773800D01*
X128529000Y-95113800D02*
X129859000Y-95113800D01*
X124659000Y-95113800D02*
X124659000Y-97773800D01*
X129859000Y-95113800D02*
X129859000Y-96443800D01*
X73619600Y-44433800D02*
X76219600Y-44433800D01*
X71019600Y-44433800D02*
X71019600Y-43103800D01*
X72349600Y-44433800D02*
X71019600Y-44433800D01*
X73619600Y-41773800D02*
X76219600Y-41773800D01*
X76219600Y-44433800D02*
X76219600Y-41773800D01*
X73619600Y-44433800D02*
X73619600Y-41773800D01*
X126976136Y-100709400D02*
X127430264Y-100709400D01*
X126976136Y-99239400D02*
X127430264Y-99239400D01*
X114829000Y-100488636D02*
X114829000Y-100272964D01*
X115549000Y-100488636D02*
X115549000Y-100272964D01*
X86671000Y-60807600D02*
G75*
G03*
X86671000Y-60807600I-1200000J0D01*
G01*
X99627636Y-88184400D02*
X99411964Y-88184400D01*
X99627636Y-88904400D02*
X99411964Y-88904400D01*
X135240500Y-61146458D02*
X135240500Y-60671942D01*
X136285500Y-61146458D02*
X136285500Y-60671942D01*
X85293200Y-41899400D02*
X84643200Y-41899400D01*
X85293200Y-45019400D02*
X86968200Y-45019400D01*
X85293200Y-45019400D02*
X84643200Y-45019400D01*
X85293200Y-41899400D02*
X85943200Y-41899400D01*
X91398600Y-41895200D02*
X91398600Y-45795200D01*
X89398600Y-41895200D02*
X89398600Y-45795200D01*
X91398600Y-41895200D02*
X89398600Y-41895200D01*
X133780200Y-67841400D02*
X133780200Y-67318896D01*
X132310200Y-67841400D02*
X132310200Y-67318896D01*
X72675600Y-92583000D02*
G75*
G03*
X72675600Y-92583000I-1200000J0D01*
G01*
X131713500Y-82533258D02*
X131713500Y-82058742D01*
X130668500Y-82533258D02*
X130668500Y-82058742D01*
X81534000Y-80441800D02*
X82473800Y-80441800D01*
X129698600Y-107264200D02*
G75*
G03*
X129698600Y-107264200I-1200000J0D01*
G01*
X140468200Y-71653400D02*
G75*
G03*
X140468200Y-71653400I-1200000J0D01*
G01*
X72929600Y-53771800D02*
G75*
G03*
X72929600Y-53771800I-1200000J0D01*
G01*
X121376200Y-84642400D02*
X121376200Y-81982400D01*
X118776200Y-83312400D02*
X118776200Y-81982400D01*
X121376200Y-81982400D02*
X126516200Y-81982400D01*
X126516200Y-84642400D02*
X126516200Y-81982400D01*
X118776200Y-81982400D02*
X120106200Y-81982400D01*
X121376200Y-84642400D02*
X126516200Y-84642400D01*
X108604164Y-83900600D02*
X108819836Y-83900600D01*
X108604164Y-83180600D02*
X108819836Y-83180600D01*
X92241900Y-81372942D02*
X92241900Y-81847458D01*
X91196900Y-81372942D02*
X91196900Y-81847458D01*
X103888000Y-86322780D02*
X103888000Y-86041620D01*
X102868000Y-86322780D02*
X102868000Y-86041620D01*
X132198342Y-77785700D02*
X132672858Y-77785700D01*
X132198342Y-78830700D02*
X132672858Y-78830700D01*
X96032837Y-46712800D02*
X98918400Y-46712800D01*
X96032837Y-46712800D02*
X94968400Y-45648363D01*
X105488400Y-45648363D02*
X105488400Y-36192800D01*
X104423963Y-46712800D02*
X101538400Y-46712800D01*
X94968400Y-36192800D02*
X98918400Y-36192800D01*
X105488400Y-36192800D02*
X101538400Y-36192800D01*
X94968400Y-45648363D02*
X94968400Y-36192800D01*
X104423963Y-46712800D02*
X105488400Y-45648363D01*
X81895800Y-107111800D02*
G75*
G03*
X81895800Y-107111800I-1200000J0D01*
G01*
X75590400Y-78181200D02*
X76530200Y-78181200D01*
X140392000Y-64668400D02*
G75*
G03*
X140392000Y-64668400I-1200000J0D01*
G01*
X108092000Y-93322800D02*
X107642000Y-93322800D01*
X108092000Y-86102800D02*
X107642000Y-86102800D01*
X107642000Y-93322800D02*
X107642000Y-92872800D01*
X114412000Y-86102800D02*
X114862000Y-86102800D01*
X107642000Y-86102800D02*
X107642000Y-86552800D01*
X114862000Y-86102800D02*
X114862000Y-86552800D01*
X114412000Y-93322800D02*
X114862000Y-93322800D01*
X107642000Y-86552800D02*
X106352000Y-86552800D01*
X114862000Y-93322800D02*
X114862000Y-92872800D01*
X73788800Y-68978800D02*
X73788800Y-56598800D01*
X73788800Y-68978800D02*
X69773800Y-68986400D01*
X73787900Y-56587400D02*
X69772900Y-56595000D01*
X131121200Y-65673800D02*
X131121200Y-71683800D01*
X124301200Y-67923800D02*
X124301200Y-71683800D01*
X124301200Y-71683800D02*
X125561200Y-71683800D01*
X131121200Y-71683800D02*
X129861200Y-71683800D01*
X78162000Y-107111800D02*
G75*
G03*
X78162000Y-107111800I-1200000J0D01*
G01*
X140493600Y-93370400D02*
G75*
G03*
X140493600Y-93370400I-1200000J0D01*
G01*
X89185600Y-107111800D02*
G75*
G03*
X89185600Y-107111800I-1200000J0D01*
G01*
X113849036Y-95550400D02*
X113633364Y-95550400D01*
X113849036Y-96270400D02*
X113633364Y-96270400D01*
X126179948Y-64311200D02*
X126702452Y-64311200D01*
X126179948Y-62841200D02*
X126702452Y-62841200D01*
X100351400Y-87527400D02*
X100351400Y-84227400D01*
X100351400Y-84227400D02*
X96351400Y-84227400D01*
X138631600Y-61658400D02*
X138631600Y-59373400D01*
X138631600Y-59373400D02*
X137161600Y-59373400D01*
X137161600Y-59373400D02*
X137161600Y-61658400D01*
X140417400Y-68097400D02*
G75*
G03*
X140417400Y-68097400I-1200000J0D01*
G01*
X133483200Y-107315000D02*
G75*
G03*
X133483200Y-107315000I-1200000J0D01*
G01*
X94204200Y-91205164D02*
X94204200Y-91420836D01*
X94924200Y-91205164D02*
X94924200Y-91420836D01*
X125030000Y-37067800D02*
X125030000Y-35737800D01*
X130230000Y-37067800D02*
X130230000Y-34407800D01*
X127630000Y-34407800D02*
X130230000Y-34407800D01*
X127630000Y-37067800D02*
X127630000Y-34407800D01*
X127630000Y-37067800D02*
X130230000Y-37067800D01*
X126360000Y-37067800D02*
X125030000Y-37067800D01*
X108840241Y-81712800D02*
X108532959Y-81712800D01*
X108840241Y-82472800D02*
X108532959Y-82472800D01*
%LPC*%
D17*
X97549000Y-73786800D03*
D18*
X95009000Y-73786800D03*
D19*
X87389000Y-73786800D03*
X79769000Y-73786800D03*
D20*
X139357600Y-86715600D03*
D21*
X139357600Y-81635600D03*
D22*
X117297200Y-86210200D03*
X117297200Y-87170200D03*
D23*
X96830000Y-88544400D03*
X97790000Y-88544400D03*
D24*
X121031000Y-95899200D03*
X119761000Y-95899200D03*
X118491000Y-95899200D03*
X117221000Y-95899200D03*
X117221000Y-100849200D03*
X118491000Y-100849200D03*
X119761000Y-100849200D03*
X121031000Y-100849200D03*
D25*
X85064600Y-77823600D03*
X85064600Y-79398600D03*
D26*
X85471000Y-64846200D03*
D27*
X89267800Y-82524600D03*
X87617800Y-82524600D03*
D28*
X87518200Y-79855300D03*
X89418200Y-79855300D03*
X88468200Y-77980300D03*
D29*
X134188200Y-81470200D03*
X134188200Y-83020200D03*
D30*
X83912200Y-40030400D03*
X87182200Y-40030400D03*
D31*
X73736200Y-37185600D03*
D32*
X105079800Y-86967000D03*
X105079800Y-86007000D03*
D33*
X85064600Y-81318600D03*
X85064600Y-82968600D03*
D34*
X86577900Y-47396400D03*
X83652900Y-47396400D03*
D35*
X71551800Y-75006200D03*
D21*
X71551800Y-80086200D03*
D36*
X96443800Y-107416600D03*
D37*
X98983800Y-107416600D03*
X101523800Y-107416600D03*
X104063800Y-107416600D03*
X106603800Y-107416600D03*
X106603800Y-99796600D03*
X104063800Y-99796600D03*
X101523800Y-99796600D03*
X98983800Y-99796600D03*
X96443800Y-99796600D03*
D26*
X71602600Y-50088800D03*
D31*
X73355200Y-102260400D03*
D26*
X84378800Y-107111800D03*
D38*
X116535200Y-106222800D03*
D39*
X121615200Y-106222800D03*
D23*
X118646000Y-93522800D03*
X119606000Y-93522800D03*
D40*
X103276400Y-58553600D03*
X103276400Y-62553600D03*
D26*
X91490800Y-107111800D03*
D31*
X137845800Y-103200200D03*
D27*
X91858600Y-65735200D03*
X90208600Y-65735200D03*
D41*
X110061800Y-47989800D03*
X111761800Y-47989800D03*
D42*
X113461800Y-38839800D03*
D41*
X113461800Y-47989800D03*
X115161800Y-47989800D03*
X116861800Y-47989800D03*
D43*
X88112600Y-35839400D03*
D39*
X83032600Y-35839400D03*
D44*
X127177800Y-55609600D03*
X127177800Y-47209600D03*
D45*
X92215600Y-93391200D03*
X86215600Y-93391200D03*
X92215600Y-89641200D03*
X86215600Y-89641200D03*
D26*
X139217400Y-97510600D03*
D46*
X108486400Y-58597799D03*
X118386400Y-58597799D03*
D47*
X128529000Y-96443800D03*
D48*
X125989000Y-96443800D03*
D47*
X72349600Y-43103800D03*
D48*
X74889600Y-43103800D03*
D49*
X126290700Y-99974400D03*
X128115700Y-99974400D03*
D32*
X115189000Y-100860800D03*
X115189000Y-99900800D03*
D26*
X85471000Y-60807600D03*
D50*
X99999800Y-88544400D03*
X99039800Y-88544400D03*
D51*
X135763000Y-61734200D03*
X135763000Y-60084200D03*
D52*
X86230700Y-44409400D03*
X86230700Y-42509400D03*
X84355700Y-43459400D03*
D53*
X90398600Y-42495200D03*
X90398600Y-45795200D03*
D54*
X133045200Y-68530148D03*
X133045200Y-66630148D03*
D26*
X71475600Y-92583000D03*
D51*
X131191000Y-83121000D03*
X131191000Y-81471000D03*
D55*
X82016600Y-81111600D03*
X82016600Y-77841600D03*
D26*
X128498600Y-107264200D03*
X139268200Y-71653400D03*
X71729600Y-53771800D03*
D47*
X120106200Y-83312400D03*
D48*
X122646200Y-83312400D03*
X125186200Y-83312400D03*
D23*
X108232000Y-83540600D03*
X109192000Y-83540600D03*
D33*
X91719400Y-80785200D03*
X91719400Y-82435200D03*
D31*
X136525000Y-37185600D03*
D56*
X103378000Y-86957200D03*
X103378000Y-85407200D03*
D57*
X131610600Y-78308200D03*
X133260600Y-78308200D03*
D58*
X100228400Y-45852800D03*
X100228400Y-37052800D03*
D26*
X80695800Y-107111800D03*
D55*
X76073000Y-78851000D03*
X76073000Y-75581000D03*
D26*
X139192000Y-64668400D03*
D59*
X107089500Y-86962800D03*
X107089500Y-87462800D03*
X107089500Y-87962800D03*
X107089500Y-88462800D03*
X107089500Y-88962800D03*
X107089500Y-89462800D03*
X107089500Y-89962800D03*
X107089500Y-90462800D03*
X107089500Y-90962800D03*
X107089500Y-91462800D03*
X107089500Y-91962800D03*
X107089500Y-92462800D03*
D60*
X108502000Y-93875300D03*
X109002000Y-93875300D03*
X109502000Y-93875300D03*
X110002000Y-93875300D03*
X110502000Y-93875300D03*
X111002000Y-93875300D03*
X111502000Y-93875300D03*
X112002000Y-93875300D03*
X112502000Y-93875300D03*
X113002000Y-93875300D03*
X113502000Y-93875300D03*
X114002000Y-93875300D03*
D59*
X115414500Y-92462800D03*
X115414500Y-91962800D03*
X115414500Y-91462800D03*
X115414500Y-90962800D03*
X115414500Y-90462800D03*
X115414500Y-89962800D03*
X115414500Y-89462800D03*
X115414500Y-88962800D03*
X115414500Y-88462800D03*
X115414500Y-87962800D03*
X115414500Y-87462800D03*
X115414500Y-86962800D03*
D60*
X114002000Y-85550300D03*
X113502000Y-85550300D03*
X113002000Y-85550300D03*
X112502000Y-85550300D03*
X112002000Y-85550300D03*
X111502000Y-85550300D03*
X111002000Y-85550300D03*
X110502000Y-85550300D03*
X110002000Y-85550300D03*
X109502000Y-85550300D03*
X109002000Y-85550300D03*
X108502000Y-85550300D03*
D35*
X71678800Y-60248800D03*
D21*
X71678800Y-65328800D03*
D61*
X130011200Y-66623800D03*
D62*
X127711200Y-72923800D03*
D61*
X127711200Y-66623800D03*
X125411200Y-66623800D03*
D26*
X76962000Y-107111800D03*
X139293600Y-93370400D03*
X87985600Y-107111800D03*
D50*
X114221200Y-95910400D03*
X113261200Y-95910400D03*
D63*
X125491200Y-63576200D03*
X127391200Y-63576200D03*
D64*
X99451400Y-85027400D03*
X97251400Y-85027400D03*
X97251400Y-86727400D03*
X99451400Y-86727400D03*
D25*
X137896600Y-60070900D03*
X137896600Y-61645900D03*
D26*
X139217400Y-68097400D03*
X132283200Y-107315000D03*
D22*
X94564200Y-90833000D03*
X94564200Y-91793000D03*
D47*
X126360000Y-35737800D03*
D48*
X128900000Y-35737800D03*
D65*
X109196600Y-82092800D03*
X108176600Y-82092800D03*
M02*
