G04 #@! TF.GenerationSoftware,KiCad,Pcbnew,(6.0.11)*
G04 #@! TF.CreationDate,2023-08-29T14:33:34-05:00*
G04 #@! TF.ProjectId,Puerta,50756572-7461-42e6-9b69-6361645f7063,rev?*
G04 #@! TF.SameCoordinates,Original*
G04 #@! TF.FileFunction,Paste,Top*
G04 #@! TF.FilePolarity,Positive*
%FSLAX46Y46*%
G04 Gerber Fmt 4.6, Leading zero omitted, Abs format (unit mm)*
G04 Created by KiCad (PCBNEW (6.0.11)) date 2023-08-29 14:33:34*
%MOMM*%
%LPD*%
G01*
G04 APERTURE LIST*
G04 Aperture macros list*
%AMRoundRect*
0 Rectangle with rounded corners*
0 $1 Rounding radius*
0 $2 $3 $4 $5 $6 $7 $8 $9 X,Y pos of 4 corners*
0 Add a 4 corners polygon primitive as box body*
4,1,4,$2,$3,$4,$5,$6,$7,$8,$9,$2,$3,0*
0 Add four circle primitives for the rounded corners*
1,1,$1+$1,$2,$3*
1,1,$1+$1,$4,$5*
1,1,$1+$1,$6,$7*
1,1,$1+$1,$8,$9*
0 Add four rect primitives between the rounded corners*
20,1,$1+$1,$2,$3,$4,$5,0*
20,1,$1+$1,$4,$5,$6,$7,0*
20,1,$1+$1,$6,$7,$8,$9,0*
20,1,$1+$1,$8,$9,$2,$3,0*%
G04 Aperture macros list end*
%ADD10RoundRect,0.140000X-0.170000X0.140000X-0.170000X-0.140000X0.170000X-0.140000X0.170000X0.140000X0*%
%ADD11RoundRect,0.140000X-0.140000X-0.170000X0.140000X-0.170000X0.140000X0.170000X-0.140000X0.170000X0*%
%ADD12RoundRect,0.150000X-0.150000X0.825000X-0.150000X-0.825000X0.150000X-0.825000X0.150000X0.825000X0*%
%ADD13RoundRect,0.218750X-0.256250X0.218750X-0.256250X-0.218750X0.256250X-0.218750X0.256250X0.218750X0*%
%ADD14RoundRect,0.200000X0.200000X0.275000X-0.200000X0.275000X-0.200000X-0.275000X0.200000X-0.275000X0*%
%ADD15RoundRect,0.150000X0.150000X-0.587500X0.150000X0.587500X-0.150000X0.587500X-0.150000X-0.587500X0*%
%ADD16RoundRect,0.225000X-0.250000X0.225000X-0.250000X-0.225000X0.250000X-0.225000X0.250000X0.225000X0*%
%ADD17R,0.910000X1.220000*%
%ADD18RoundRect,0.140000X0.170000X-0.140000X0.170000X0.140000X-0.170000X0.140000X-0.170000X-0.140000X0*%
%ADD19RoundRect,0.200000X-0.275000X0.200000X-0.275000X-0.200000X0.275000X-0.200000X0.275000X0.200000X0*%
%ADD20RoundRect,0.250000X0.312500X0.625000X-0.312500X0.625000X-0.312500X-0.625000X0.312500X-0.625000X0*%
%ADD21R,1.800000X2.500000*%
%ADD22R,5.250000X4.550000*%
%ADD23R,1.100000X4.600000*%
%ADD24RoundRect,0.250000X1.000000X-1.950000X1.000000X1.950000X-1.000000X1.950000X-1.000000X-1.950000X0*%
%ADD25R,1.000000X0.750000*%
%ADD26R,2.899999X5.399999*%
%ADD27RoundRect,0.250000X-0.262500X-0.450000X0.262500X-0.450000X0.262500X0.450000X-0.262500X0.450000X0*%
%ADD28RoundRect,0.140000X0.140000X0.170000X-0.140000X0.170000X-0.140000X-0.170000X0.140000X-0.170000X0*%
%ADD29RoundRect,0.200000X0.275000X-0.200000X0.275000X0.200000X-0.275000X0.200000X-0.275000X-0.200000X0*%
%ADD30RoundRect,0.150000X0.587500X0.150000X-0.587500X0.150000X-0.587500X-0.150000X0.587500X-0.150000X0*%
%ADD31R,1.200000X0.900000*%
%ADD32RoundRect,0.250000X0.475000X-0.250000X0.475000X0.250000X-0.475000X0.250000X-0.475000X-0.250000X0*%
%ADD33R,1.220000X0.910000*%
%ADD34RoundRect,0.225000X0.250000X-0.225000X0.250000X0.225000X-0.250000X0.225000X-0.250000X-0.225000X0*%
%ADD35RoundRect,0.200000X-0.200000X-0.275000X0.200000X-0.275000X0.200000X0.275000X-0.200000X0.275000X0*%
%ADD36RoundRect,0.250001X0.799999X-2.049999X0.799999X2.049999X-0.799999X2.049999X-0.799999X-2.049999X0*%
%ADD37RoundRect,0.075000X-0.662500X-0.075000X0.662500X-0.075000X0.662500X0.075000X-0.662500X0.075000X0*%
%ADD38RoundRect,0.075000X-0.075000X-0.662500X0.075000X-0.662500X0.075000X0.662500X-0.075000X0.662500X0*%
%ADD39R,1.500000X2.000000*%
%ADD40R,3.800000X2.000000*%
%ADD41RoundRect,0.250000X-0.250000X-0.475000X0.250000X-0.475000X0.250000X0.475000X-0.250000X0.475000X0*%
%ADD42R,1.400000X1.200000*%
%ADD43RoundRect,0.135000X0.135000X0.185000X-0.135000X0.185000X-0.135000X-0.185000X0.135000X-0.185000X0*%
G04 APERTURE END LIST*
D10*
X117297200Y-86210200D03*
X117297200Y-87170200D03*
D11*
X96830000Y-88544400D03*
X97790000Y-88544400D03*
D12*
X121031000Y-95899200D03*
X119761000Y-95899200D03*
X118491000Y-95899200D03*
X117221000Y-95899200D03*
X117221000Y-100849200D03*
X118491000Y-100849200D03*
X119761000Y-100849200D03*
X121031000Y-100849200D03*
D13*
X85064600Y-77823600D03*
X85064600Y-79398600D03*
D14*
X89267800Y-82524600D03*
X87617800Y-82524600D03*
D15*
X87518200Y-79855300D03*
X89418200Y-79855300D03*
X88468200Y-77980300D03*
D16*
X134188200Y-81470200D03*
X134188200Y-83020200D03*
D17*
X83912200Y-40030400D03*
X87182200Y-40030400D03*
D18*
X105079800Y-86967000D03*
X105079800Y-86007000D03*
D19*
X85064600Y-81318600D03*
X85064600Y-82968600D03*
D20*
X86577900Y-47396400D03*
X83652900Y-47396400D03*
D11*
X118646000Y-93522800D03*
X119606000Y-93522800D03*
D21*
X103276400Y-58553600D03*
X103276400Y-62553600D03*
D14*
X91858600Y-65735200D03*
X90208600Y-65735200D03*
D22*
X110686800Y-36414800D03*
X116236800Y-36414800D03*
X116236800Y-41264800D03*
X110686800Y-41264800D03*
D23*
X110061800Y-47989800D03*
X111761800Y-47989800D03*
X113461800Y-47989800D03*
X115161800Y-47989800D03*
X116861800Y-47989800D03*
D24*
X127177800Y-55609600D03*
X127177800Y-47209600D03*
D25*
X92215600Y-93391200D03*
X86215600Y-93391200D03*
X92215600Y-89641200D03*
X86215600Y-89641200D03*
D26*
X108486400Y-58597799D03*
X118386400Y-58597799D03*
D27*
X126290700Y-99974400D03*
X128115700Y-99974400D03*
D18*
X115189000Y-100860800D03*
X115189000Y-99900800D03*
D28*
X99999800Y-88544400D03*
X99039800Y-88544400D03*
D29*
X135763000Y-61734200D03*
X135763000Y-60084200D03*
D30*
X86230700Y-44409400D03*
X86230700Y-42509400D03*
X84355700Y-43459400D03*
D31*
X90398600Y-42495200D03*
X90398600Y-45795200D03*
D32*
X133045200Y-68530148D03*
X133045200Y-66630148D03*
D29*
X131191000Y-83121000D03*
X131191000Y-81471000D03*
D33*
X82016600Y-81111600D03*
X82016600Y-77841600D03*
D11*
X108232000Y-83540600D03*
X109192000Y-83540600D03*
D19*
X91719400Y-80785200D03*
X91719400Y-82435200D03*
D34*
X103378000Y-86957200D03*
X103378000Y-85407200D03*
D35*
X131610600Y-78308200D03*
X133260600Y-78308200D03*
D36*
X100228400Y-45852800D03*
X100228400Y-37052800D03*
D33*
X76073000Y-78851000D03*
X76073000Y-75581000D03*
D37*
X107089500Y-86962800D03*
X107089500Y-87462800D03*
X107089500Y-87962800D03*
X107089500Y-88462800D03*
X107089500Y-88962800D03*
X107089500Y-89462800D03*
X107089500Y-89962800D03*
X107089500Y-90462800D03*
X107089500Y-90962800D03*
X107089500Y-91462800D03*
X107089500Y-91962800D03*
X107089500Y-92462800D03*
D38*
X108502000Y-93875300D03*
X109002000Y-93875300D03*
X109502000Y-93875300D03*
X110002000Y-93875300D03*
X110502000Y-93875300D03*
X111002000Y-93875300D03*
X111502000Y-93875300D03*
X112002000Y-93875300D03*
X112502000Y-93875300D03*
X113002000Y-93875300D03*
X113502000Y-93875300D03*
X114002000Y-93875300D03*
D37*
X115414500Y-92462800D03*
X115414500Y-91962800D03*
X115414500Y-91462800D03*
X115414500Y-90962800D03*
X115414500Y-90462800D03*
X115414500Y-89962800D03*
X115414500Y-89462800D03*
X115414500Y-88962800D03*
X115414500Y-88462800D03*
X115414500Y-87962800D03*
X115414500Y-87462800D03*
X115414500Y-86962800D03*
D38*
X114002000Y-85550300D03*
X113502000Y-85550300D03*
X113002000Y-85550300D03*
X112502000Y-85550300D03*
X112002000Y-85550300D03*
X111502000Y-85550300D03*
X111002000Y-85550300D03*
X110502000Y-85550300D03*
X110002000Y-85550300D03*
X109502000Y-85550300D03*
X109002000Y-85550300D03*
X108502000Y-85550300D03*
D39*
X130011200Y-66623800D03*
D40*
X127711200Y-72923800D03*
D39*
X127711200Y-66623800D03*
X125411200Y-66623800D03*
D28*
X114221200Y-95910400D03*
X113261200Y-95910400D03*
D41*
X125491200Y-63576200D03*
X127391200Y-63576200D03*
D42*
X99451400Y-85027400D03*
X97251400Y-85027400D03*
X97251400Y-86727400D03*
X99451400Y-86727400D03*
D13*
X137896600Y-60070900D03*
X137896600Y-61645900D03*
D10*
X94564200Y-90833000D03*
X94564200Y-91793000D03*
D43*
X109196600Y-82092800D03*
X108176600Y-82092800D03*
M02*
