G04 #@! TF.GenerationSoftware,KiCad,Pcbnew,(6.0.11)*
G04 #@! TF.CreationDate,2023-08-29T14:33:34-05:00*
G04 #@! TF.ProjectId,Puerta,50756572-7461-42e6-9b69-6361645f7063,rev?*
G04 #@! TF.SameCoordinates,Original*
G04 #@! TF.FileFunction,Copper,L1,Top*
G04 #@! TF.FilePolarity,Positive*
%FSLAX46Y46*%
G04 Gerber Fmt 4.6, Leading zero omitted, Abs format (unit mm)*
G04 Created by KiCad (PCBNEW (6.0.11)) date 2023-08-29 14:33:34*
%MOMM*%
%LPD*%
G01*
G04 APERTURE LIST*
G04 Aperture macros list*
%AMRoundRect*
0 Rectangle with rounded corners*
0 $1 Rounding radius*
0 $2 $3 $4 $5 $6 $7 $8 $9 X,Y pos of 4 corners*
0 Add a 4 corners polygon primitive as box body*
4,1,4,$2,$3,$4,$5,$6,$7,$8,$9,$2,$3,0*
0 Add four circle primitives for the rounded corners*
1,1,$1+$1,$2,$3*
1,1,$1+$1,$4,$5*
1,1,$1+$1,$6,$7*
1,1,$1+$1,$8,$9*
0 Add four rect primitives between the rounded corners*
20,1,$1+$1,$2,$3,$4,$5,0*
20,1,$1+$1,$4,$5,$6,$7,0*
20,1,$1+$1,$6,$7,$8,$9,0*
20,1,$1+$1,$8,$9,$2,$3,0*%
G04 Aperture macros list end*
G04 #@! TA.AperFunction,ComponentPad*
%ADD10R,1.508000X1.508000*%
G04 #@! TD*
G04 #@! TA.AperFunction,ComponentPad*
%ADD11C,1.508000*%
G04 #@! TD*
G04 #@! TA.AperFunction,ComponentPad*
%ADD12C,1.800000*%
G04 #@! TD*
G04 #@! TA.AperFunction,ComponentPad*
%ADD13RoundRect,0.249999X1.550001X-0.790001X1.550001X0.790001X-1.550001X0.790001X-1.550001X-0.790001X0*%
G04 #@! TD*
G04 #@! TA.AperFunction,ComponentPad*
%ADD14O,3.600000X2.080000*%
G04 #@! TD*
G04 #@! TA.AperFunction,SMDPad,CuDef*
%ADD15RoundRect,0.140000X-0.170000X0.140000X-0.170000X-0.140000X0.170000X-0.140000X0.170000X0.140000X0*%
G04 #@! TD*
G04 #@! TA.AperFunction,SMDPad,CuDef*
%ADD16RoundRect,0.140000X-0.140000X-0.170000X0.140000X-0.170000X0.140000X0.170000X-0.140000X0.170000X0*%
G04 #@! TD*
G04 #@! TA.AperFunction,SMDPad,CuDef*
%ADD17RoundRect,0.150000X-0.150000X0.825000X-0.150000X-0.825000X0.150000X-0.825000X0.150000X0.825000X0*%
G04 #@! TD*
G04 #@! TA.AperFunction,SMDPad,CuDef*
%ADD18RoundRect,0.218750X-0.256250X0.218750X-0.256250X-0.218750X0.256250X-0.218750X0.256250X0.218750X0*%
G04 #@! TD*
G04 #@! TA.AperFunction,SMDPad,CuDef*
%ADD19C,2.000000*%
G04 #@! TD*
G04 #@! TA.AperFunction,SMDPad,CuDef*
%ADD20RoundRect,0.200000X0.200000X0.275000X-0.200000X0.275000X-0.200000X-0.275000X0.200000X-0.275000X0*%
G04 #@! TD*
G04 #@! TA.AperFunction,SMDPad,CuDef*
%ADD21RoundRect,0.150000X0.150000X-0.587500X0.150000X0.587500X-0.150000X0.587500X-0.150000X-0.587500X0*%
G04 #@! TD*
G04 #@! TA.AperFunction,SMDPad,CuDef*
%ADD22RoundRect,0.225000X-0.250000X0.225000X-0.250000X-0.225000X0.250000X-0.225000X0.250000X0.225000X0*%
G04 #@! TD*
G04 #@! TA.AperFunction,SMDPad,CuDef*
%ADD23R,0.910000X1.220000*%
G04 #@! TD*
G04 #@! TA.AperFunction,SMDPad,CuDef*
%ADD24RoundRect,0.140000X0.170000X-0.140000X0.170000X0.140000X-0.170000X0.140000X-0.170000X-0.140000X0*%
G04 #@! TD*
G04 #@! TA.AperFunction,SMDPad,CuDef*
%ADD25RoundRect,0.200000X-0.275000X0.200000X-0.275000X-0.200000X0.275000X-0.200000X0.275000X0.200000X0*%
G04 #@! TD*
G04 #@! TA.AperFunction,SMDPad,CuDef*
%ADD26RoundRect,0.250000X0.312500X0.625000X-0.312500X0.625000X-0.312500X-0.625000X0.312500X-0.625000X0*%
G04 #@! TD*
G04 #@! TA.AperFunction,ComponentPad*
%ADD27RoundRect,0.249999X-1.550001X0.790001X-1.550001X-0.790001X1.550001X-0.790001X1.550001X0.790001X0*%
G04 #@! TD*
G04 #@! TA.AperFunction,ComponentPad*
%ADD28R,1.600000X1.600000*%
G04 #@! TD*
G04 #@! TA.AperFunction,ComponentPad*
%ADD29O,1.600000X1.600000*%
G04 #@! TD*
G04 #@! TA.AperFunction,ComponentPad*
%ADD30RoundRect,0.249999X-0.790001X-1.550001X0.790001X-1.550001X0.790001X1.550001X-0.790001X1.550001X0*%
G04 #@! TD*
G04 #@! TA.AperFunction,ComponentPad*
%ADD31O,2.080000X3.600000*%
G04 #@! TD*
G04 #@! TA.AperFunction,SMDPad,CuDef*
%ADD32R,1.800000X2.500000*%
G04 #@! TD*
G04 #@! TA.AperFunction,SMDPad,CuDef*
%ADD33R,1.100000X4.600000*%
G04 #@! TD*
G04 #@! TA.AperFunction,SMDPad,CuDef*
%ADD34R,10.800000X9.400000*%
G04 #@! TD*
G04 #@! TA.AperFunction,ComponentPad*
%ADD35RoundRect,0.249999X0.790001X1.550001X-0.790001X1.550001X-0.790001X-1.550001X0.790001X-1.550001X0*%
G04 #@! TD*
G04 #@! TA.AperFunction,SMDPad,CuDef*
%ADD36RoundRect,0.250000X1.000000X-1.950000X1.000000X1.950000X-1.000000X1.950000X-1.000000X-1.950000X0*%
G04 #@! TD*
G04 #@! TA.AperFunction,SMDPad,CuDef*
%ADD37R,1.000000X0.750000*%
G04 #@! TD*
G04 #@! TA.AperFunction,SMDPad,CuDef*
%ADD38R,2.899999X5.399999*%
G04 #@! TD*
G04 #@! TA.AperFunction,ComponentPad*
%ADD39R,1.700000X1.700000*%
G04 #@! TD*
G04 #@! TA.AperFunction,ComponentPad*
%ADD40O,1.700000X1.700000*%
G04 #@! TD*
G04 #@! TA.AperFunction,SMDPad,CuDef*
%ADD41RoundRect,0.250000X-0.262500X-0.450000X0.262500X-0.450000X0.262500X0.450000X-0.262500X0.450000X0*%
G04 #@! TD*
G04 #@! TA.AperFunction,SMDPad,CuDef*
%ADD42RoundRect,0.140000X0.140000X0.170000X-0.140000X0.170000X-0.140000X-0.170000X0.140000X-0.170000X0*%
G04 #@! TD*
G04 #@! TA.AperFunction,SMDPad,CuDef*
%ADD43RoundRect,0.200000X0.275000X-0.200000X0.275000X0.200000X-0.275000X0.200000X-0.275000X-0.200000X0*%
G04 #@! TD*
G04 #@! TA.AperFunction,SMDPad,CuDef*
%ADD44RoundRect,0.150000X0.587500X0.150000X-0.587500X0.150000X-0.587500X-0.150000X0.587500X-0.150000X0*%
G04 #@! TD*
G04 #@! TA.AperFunction,SMDPad,CuDef*
%ADD45R,1.200000X0.900000*%
G04 #@! TD*
G04 #@! TA.AperFunction,SMDPad,CuDef*
%ADD46RoundRect,0.250000X0.475000X-0.250000X0.475000X0.250000X-0.475000X0.250000X-0.475000X-0.250000X0*%
G04 #@! TD*
G04 #@! TA.AperFunction,SMDPad,CuDef*
%ADD47R,1.220000X0.910000*%
G04 #@! TD*
G04 #@! TA.AperFunction,SMDPad,CuDef*
%ADD48RoundRect,0.225000X0.250000X-0.225000X0.250000X0.225000X-0.250000X0.225000X-0.250000X-0.225000X0*%
G04 #@! TD*
G04 #@! TA.AperFunction,SMDPad,CuDef*
%ADD49RoundRect,0.200000X-0.200000X-0.275000X0.200000X-0.275000X0.200000X0.275000X-0.200000X0.275000X0*%
G04 #@! TD*
G04 #@! TA.AperFunction,SMDPad,CuDef*
%ADD50RoundRect,0.250001X0.799999X-2.049999X0.799999X2.049999X-0.799999X2.049999X-0.799999X-2.049999X0*%
G04 #@! TD*
G04 #@! TA.AperFunction,SMDPad,CuDef*
%ADD51RoundRect,0.075000X-0.662500X-0.075000X0.662500X-0.075000X0.662500X0.075000X-0.662500X0.075000X0*%
G04 #@! TD*
G04 #@! TA.AperFunction,SMDPad,CuDef*
%ADD52RoundRect,0.075000X-0.075000X-0.662500X0.075000X-0.662500X0.075000X0.662500X-0.075000X0.662500X0*%
G04 #@! TD*
G04 #@! TA.AperFunction,SMDPad,CuDef*
%ADD53R,1.500000X2.000000*%
G04 #@! TD*
G04 #@! TA.AperFunction,SMDPad,CuDef*
%ADD54R,3.800000X2.000000*%
G04 #@! TD*
G04 #@! TA.AperFunction,SMDPad,CuDef*
%ADD55RoundRect,0.250000X-0.250000X-0.475000X0.250000X-0.475000X0.250000X0.475000X-0.250000X0.475000X0*%
G04 #@! TD*
G04 #@! TA.AperFunction,SMDPad,CuDef*
%ADD56R,1.400000X1.200000*%
G04 #@! TD*
G04 #@! TA.AperFunction,SMDPad,CuDef*
%ADD57RoundRect,0.135000X0.135000X0.185000X-0.135000X0.185000X-0.135000X-0.185000X0.135000X-0.185000X0*%
G04 #@! TD*
G04 #@! TA.AperFunction,ViaPad*
%ADD58C,1.000000*%
G04 #@! TD*
G04 #@! TA.AperFunction,ViaPad*
%ADD59C,0.700000*%
G04 #@! TD*
G04 #@! TA.AperFunction,Conductor*
%ADD60C,0.700000*%
G04 #@! TD*
G04 #@! TA.AperFunction,Conductor*
%ADD61C,0.300000*%
G04 #@! TD*
G04 #@! TA.AperFunction,Conductor*
%ADD62C,0.293370*%
G04 #@! TD*
G04 #@! TA.AperFunction,Conductor*
%ADD63C,0.500000*%
G04 #@! TD*
G04 APERTURE END LIST*
D10*
X97549000Y-73786800D03*
D11*
X95009000Y-73786800D03*
D12*
X87389000Y-73786800D03*
X79769000Y-73786800D03*
D13*
X139357600Y-86715600D03*
D14*
X139357600Y-81635600D03*
D15*
X117297200Y-86210200D03*
X117297200Y-87170200D03*
D16*
X96830000Y-88544400D03*
X97790000Y-88544400D03*
D17*
X121031000Y-95899200D03*
X119761000Y-95899200D03*
X118491000Y-95899200D03*
X117221000Y-95899200D03*
X117221000Y-100849200D03*
X118491000Y-100849200D03*
X119761000Y-100849200D03*
X121031000Y-100849200D03*
D18*
X85064600Y-77823600D03*
X85064600Y-79398600D03*
D19*
X85471000Y-64846200D03*
D20*
X89267800Y-82524600D03*
X87617800Y-82524600D03*
D21*
X87518200Y-79855300D03*
X89418200Y-79855300D03*
X88468200Y-77980300D03*
D22*
X134188200Y-81470200D03*
X134188200Y-83020200D03*
D23*
X83912200Y-40030400D03*
X87182200Y-40030400D03*
D24*
X105079800Y-86967000D03*
X105079800Y-86007000D03*
D25*
X85064600Y-81318600D03*
X85064600Y-82968600D03*
D26*
X86577900Y-47396400D03*
X83652900Y-47396400D03*
D27*
X71551800Y-75006200D03*
D14*
X71551800Y-80086200D03*
D28*
X96443800Y-107416600D03*
D29*
X98983800Y-107416600D03*
X101523800Y-107416600D03*
X104063800Y-107416600D03*
X106603800Y-107416600D03*
X106603800Y-99796600D03*
X104063800Y-99796600D03*
X101523800Y-99796600D03*
X98983800Y-99796600D03*
X96443800Y-99796600D03*
D19*
X71602600Y-50088800D03*
X84378800Y-107111800D03*
D30*
X116535200Y-106222800D03*
D31*
X121615200Y-106222800D03*
D16*
X118646000Y-93522800D03*
X119606000Y-93522800D03*
D32*
X103276400Y-58553600D03*
X103276400Y-62553600D03*
D19*
X91490800Y-107111800D03*
D20*
X91858600Y-65735200D03*
X90208600Y-65735200D03*
D33*
X110061800Y-47989800D03*
X111761800Y-47989800D03*
D34*
X113461800Y-38839800D03*
D33*
X113461800Y-47989800D03*
X115161800Y-47989800D03*
X116861800Y-47989800D03*
D35*
X88112600Y-35839400D03*
D31*
X83032600Y-35839400D03*
D36*
X127177800Y-55609600D03*
X127177800Y-47209600D03*
D37*
X92215600Y-93391200D03*
X86215600Y-93391200D03*
X92215600Y-89641200D03*
X86215600Y-89641200D03*
D19*
X139217400Y-97510600D03*
D38*
X108486400Y-58597799D03*
X118386400Y-58597799D03*
D39*
X128529000Y-96443800D03*
D40*
X125989000Y-96443800D03*
D39*
X72349600Y-43103800D03*
D40*
X74889600Y-43103800D03*
D41*
X126290700Y-99974400D03*
X128115700Y-99974400D03*
D24*
X115189000Y-100860800D03*
X115189000Y-99900800D03*
D19*
X85471000Y-60807600D03*
D42*
X99999800Y-88544400D03*
X99039800Y-88544400D03*
D43*
X135763000Y-61734200D03*
X135763000Y-60084200D03*
D44*
X86230700Y-44409400D03*
X86230700Y-42509400D03*
X84355700Y-43459400D03*
D45*
X90398600Y-42495200D03*
X90398600Y-45795200D03*
D46*
X133045200Y-68530148D03*
X133045200Y-66630148D03*
D19*
X71475600Y-92583000D03*
D43*
X131191000Y-83121000D03*
X131191000Y-81471000D03*
D47*
X82016600Y-81111600D03*
X82016600Y-77841600D03*
D19*
X128498600Y-107264200D03*
X139268200Y-71653400D03*
X71729600Y-53771800D03*
D39*
X120106200Y-83312400D03*
D40*
X122646200Y-83312400D03*
X125186200Y-83312400D03*
D16*
X108232000Y-83540600D03*
X109192000Y-83540600D03*
D25*
X91719400Y-80785200D03*
X91719400Y-82435200D03*
D48*
X103378000Y-86957200D03*
X103378000Y-85407200D03*
D49*
X131610600Y-78308200D03*
X133260600Y-78308200D03*
D50*
X100228400Y-45852800D03*
X100228400Y-37052800D03*
D19*
X80695800Y-107111800D03*
D47*
X76073000Y-78851000D03*
X76073000Y-75581000D03*
D19*
X139192000Y-64668400D03*
D51*
X107089500Y-86962800D03*
X107089500Y-87462800D03*
X107089500Y-87962800D03*
X107089500Y-88462800D03*
X107089500Y-88962800D03*
X107089500Y-89462800D03*
X107089500Y-89962800D03*
X107089500Y-90462800D03*
X107089500Y-90962800D03*
X107089500Y-91462800D03*
X107089500Y-91962800D03*
X107089500Y-92462800D03*
D52*
X108502000Y-93875300D03*
X109002000Y-93875300D03*
X109502000Y-93875300D03*
X110002000Y-93875300D03*
X110502000Y-93875300D03*
X111002000Y-93875300D03*
X111502000Y-93875300D03*
X112002000Y-93875300D03*
X112502000Y-93875300D03*
X113002000Y-93875300D03*
X113502000Y-93875300D03*
X114002000Y-93875300D03*
D51*
X115414500Y-92462800D03*
X115414500Y-91962800D03*
X115414500Y-91462800D03*
X115414500Y-90962800D03*
X115414500Y-90462800D03*
X115414500Y-89962800D03*
X115414500Y-89462800D03*
X115414500Y-88962800D03*
X115414500Y-88462800D03*
X115414500Y-87962800D03*
X115414500Y-87462800D03*
X115414500Y-86962800D03*
D52*
X114002000Y-85550300D03*
X113502000Y-85550300D03*
X113002000Y-85550300D03*
X112502000Y-85550300D03*
X112002000Y-85550300D03*
X111502000Y-85550300D03*
X111002000Y-85550300D03*
X110502000Y-85550300D03*
X110002000Y-85550300D03*
X109502000Y-85550300D03*
X109002000Y-85550300D03*
X108502000Y-85550300D03*
D27*
X71678800Y-60248800D03*
D14*
X71678800Y-65328800D03*
D53*
X130011200Y-66623800D03*
D54*
X127711200Y-72923800D03*
D53*
X127711200Y-66623800D03*
X125411200Y-66623800D03*
D19*
X76962000Y-107111800D03*
X139293600Y-93370400D03*
X87985600Y-107111800D03*
D42*
X114221200Y-95910400D03*
X113261200Y-95910400D03*
D55*
X125491200Y-63576200D03*
X127391200Y-63576200D03*
D56*
X99451400Y-85027400D03*
X97251400Y-85027400D03*
X97251400Y-86727400D03*
X99451400Y-86727400D03*
D18*
X137896600Y-60070900D03*
X137896600Y-61645900D03*
D19*
X139217400Y-68097400D03*
X132283200Y-107315000D03*
D15*
X94564200Y-90833000D03*
X94564200Y-91793000D03*
D39*
X126360000Y-35737800D03*
D40*
X128900000Y-35737800D03*
D57*
X109196600Y-82092800D03*
X108176600Y-82092800D03*
D58*
X79883000Y-59461400D03*
D59*
X91440000Y-60960000D03*
X81280000Y-48260000D03*
X111760000Y-68580000D03*
X76200000Y-96520000D03*
D58*
X128828800Y-79908400D03*
D59*
X104140000Y-50800000D03*
X81280000Y-83820000D03*
X119761000Y-49707800D03*
X129540000Y-88900000D03*
X134620000Y-88900000D03*
X129540000Y-43180000D03*
X99060000Y-81280000D03*
X132080000Y-86360000D03*
X76200000Y-93980000D03*
X134137400Y-61747400D03*
X93980000Y-63500000D03*
X83820000Y-53340000D03*
X104140000Y-73660000D03*
X96520000Y-60960000D03*
X99060000Y-58420000D03*
X104444800Y-85217000D03*
X78740000Y-78740000D03*
X108839000Y-90449400D03*
X91440000Y-53340000D03*
X109220000Y-71120000D03*
X78740000Y-96520000D03*
X114300000Y-73660000D03*
X104521000Y-34899600D03*
X93980000Y-88900000D03*
X129540000Y-86360000D03*
X129667000Y-64846200D03*
X74117200Y-53746400D03*
X113919000Y-87452200D03*
X121920000Y-68580000D03*
X127000000Y-40640000D03*
X81280000Y-91440000D03*
X132080000Y-73660000D03*
X134620000Y-91440000D03*
X76200000Y-53340000D03*
X134620000Y-48260000D03*
X96520000Y-81280000D03*
X81280000Y-53340000D03*
X124460000Y-91440000D03*
X84632800Y-93395800D03*
X129540000Y-60960000D03*
X103174800Y-92964000D03*
X99060000Y-63500000D03*
X91440000Y-86360000D03*
X81280000Y-86360000D03*
X83820000Y-91440000D03*
X75285600Y-65303400D03*
X81280000Y-66040000D03*
X88900000Y-50800000D03*
X106248200Y-36296600D03*
X95580200Y-91770200D03*
X121920000Y-63500000D03*
X137160000Y-48260000D03*
X71120000Y-86360000D03*
X121031000Y-46177200D03*
X121056400Y-49682400D03*
X134620000Y-43180000D03*
X111760000Y-73660000D03*
X119710200Y-44932600D03*
X121920000Y-73660000D03*
X86360000Y-58420000D03*
X96520000Y-53340000D03*
X86360000Y-50800000D03*
X103251000Y-64643000D03*
X99060000Y-60960000D03*
X93980000Y-60960000D03*
X124460000Y-40640000D03*
X131699000Y-66344800D03*
X136347200Y-97510600D03*
X88900000Y-48260000D03*
X99060000Y-78740000D03*
X101600000Y-55880000D03*
X130657600Y-64820800D03*
X91440000Y-58420000D03*
X137160000Y-45720000D03*
X113487200Y-92354400D03*
X129540000Y-58420000D03*
D58*
X115849400Y-84683600D03*
D59*
X76200000Y-91440000D03*
X83820000Y-58420000D03*
X132080000Y-58420000D03*
X88900000Y-53340000D03*
X122631200Y-80949800D03*
X95760600Y-85039200D03*
X73660000Y-50800000D03*
X76200000Y-55880000D03*
X91440000Y-40640000D03*
X78740000Y-50800000D03*
X116840000Y-71120000D03*
X126365000Y-38430200D03*
X73660000Y-91440000D03*
X127000000Y-43180000D03*
X106680000Y-73660000D03*
X108991400Y-86995000D03*
X105054400Y-38201600D03*
X121920000Y-88900000D03*
X109220000Y-73660000D03*
X121920000Y-43180000D03*
X139700000Y-48260000D03*
X91440000Y-63500000D03*
X121031000Y-47269400D03*
X134162800Y-84251800D03*
D58*
X103555800Y-80797400D03*
D59*
X122402600Y-49733200D03*
X134620000Y-63500000D03*
X104140000Y-71120000D03*
X76200000Y-88900000D03*
X93980000Y-40640000D03*
X132080000Y-88900000D03*
X88900000Y-63500000D03*
X127000000Y-88900000D03*
X119380000Y-71120000D03*
X107137200Y-82092800D03*
X81280000Y-63500000D03*
X83820000Y-50800000D03*
X122275600Y-45669200D03*
X73660000Y-86360000D03*
X134620000Y-53340000D03*
X93980000Y-48260000D03*
X119659400Y-46202600D03*
X81280000Y-88900000D03*
X71120000Y-96520000D03*
X121920000Y-40640000D03*
X81280000Y-50800000D03*
X86360000Y-53340000D03*
X88900000Y-58420000D03*
X111760000Y-71120000D03*
D58*
X109778800Y-68224400D03*
D59*
X127000000Y-86360000D03*
X93980000Y-50800000D03*
X90551000Y-79603600D03*
X96520000Y-58420000D03*
X73660000Y-96520000D03*
X134620000Y-71120000D03*
X116840000Y-68580000D03*
X119380000Y-73660000D03*
X122402600Y-100812600D03*
X102870000Y-34925000D03*
X93980000Y-53340000D03*
X73660000Y-88900000D03*
X121132600Y-48691800D03*
X106680000Y-78740000D03*
X122351800Y-48514000D03*
X118414800Y-90017600D03*
X106146600Y-34899600D03*
X136347200Y-64871600D03*
X127000000Y-91440000D03*
X104140000Y-78740000D03*
X137160000Y-43180000D03*
X119380000Y-68580000D03*
X88900000Y-60960000D03*
X96520000Y-50800000D03*
X135077200Y-66954400D03*
X76200000Y-83820000D03*
X106680000Y-71120000D03*
X114223800Y-99898200D03*
X71120000Y-88900000D03*
X116840000Y-73660000D03*
X130048000Y-63627000D03*
X122351800Y-47091600D03*
X93980000Y-86360000D03*
X91440000Y-50800000D03*
X124460000Y-60960000D03*
X73660000Y-93980000D03*
X78740000Y-48260000D03*
X134620000Y-96520000D03*
X81813400Y-46812200D03*
D58*
X129870200Y-75717400D03*
D59*
X132080000Y-91440000D03*
X78740000Y-99060000D03*
X101600000Y-53340000D03*
D58*
X81432400Y-60248800D03*
D59*
X119608600Y-92481400D03*
X124460000Y-43180000D03*
X102997000Y-36576000D03*
X76200000Y-68580000D03*
X119735600Y-48590200D03*
X134620000Y-93980000D03*
X104140000Y-68580000D03*
X78740000Y-55880000D03*
X104140000Y-53340000D03*
X98376800Y-88011000D03*
X131622800Y-64871600D03*
X132080000Y-60960000D03*
X106680000Y-68580000D03*
X103098600Y-38328600D03*
X120904000Y-44932600D03*
X93980000Y-58420000D03*
X99060000Y-55880000D03*
X121920000Y-71120000D03*
X139700000Y-43180000D03*
X101600000Y-50800000D03*
X137160000Y-55880000D03*
X114300000Y-71120000D03*
X83820000Y-86360000D03*
X91770200Y-79578200D03*
D58*
X86055200Y-86156800D03*
D59*
X76200000Y-81280000D03*
X136677400Y-68097400D03*
X124460000Y-88900000D03*
X96520000Y-48260000D03*
X121920000Y-60960000D03*
X91440000Y-48260000D03*
X134620000Y-99060000D03*
X96520000Y-78740000D03*
X83820000Y-88900000D03*
X139700000Y-45720000D03*
X137160000Y-53340000D03*
X76200000Y-48260000D03*
X134620000Y-73660000D03*
X128828800Y-63601600D03*
X134620000Y-55880000D03*
X134620000Y-45720000D03*
X78740000Y-53340000D03*
X76200000Y-86360000D03*
X106426000Y-38303200D03*
X96520000Y-63500000D03*
X129540000Y-91440000D03*
X121920000Y-66040000D03*
X88900000Y-40640000D03*
X76200000Y-50800000D03*
X114300000Y-68580000D03*
X104775000Y-36423600D03*
X119735600Y-47345600D03*
X103200200Y-93980000D03*
X118313200Y-91135200D03*
D58*
X86029800Y-84886800D03*
X109651800Y-66903600D03*
X102209600Y-80746600D03*
D59*
X101320600Y-92278200D03*
D58*
X127711200Y-75260200D03*
X127711200Y-82143600D03*
X117297200Y-84505800D03*
D59*
X136144000Y-92684600D03*
X131724400Y-76225400D03*
D60*
X96062800Y-55753000D02*
X84455000Y-55753000D01*
X86230700Y-42509400D02*
X90384400Y-42509400D01*
X99365800Y-42444400D02*
X100228400Y-43307000D01*
X84455000Y-55753000D02*
X83591400Y-55753000D01*
X90384400Y-42509400D02*
X90398600Y-42495200D01*
X100228400Y-43307000D02*
X100228400Y-45852800D01*
X90449400Y-42444400D02*
X99365800Y-42444400D01*
X83591400Y-55753000D02*
X79883000Y-59461400D01*
X90398600Y-42495200D02*
X90449400Y-42444400D01*
X100228400Y-51587400D02*
X98958400Y-52857400D01*
X100228400Y-45852800D02*
X100228400Y-51587400D01*
X98958400Y-52857400D02*
X96062800Y-55753000D01*
D61*
X113929600Y-87462800D02*
X113919000Y-87452200D01*
D62*
X122366000Y-100849200D02*
X122402600Y-100812600D01*
D61*
X139141200Y-86715600D02*
X135445800Y-83020200D01*
D63*
X126360000Y-35737800D02*
X126360000Y-38425200D01*
D62*
X108176600Y-82092800D02*
X107137200Y-82092800D01*
D61*
X109192000Y-84254400D02*
X109192000Y-83540600D01*
X117004600Y-87462800D02*
X117297200Y-87170200D01*
D63*
X119606000Y-94434600D02*
X119606000Y-93522800D01*
X83652900Y-47396400D02*
X82397600Y-47396400D01*
D62*
X115189000Y-99900800D02*
X114226400Y-99900800D01*
X92215600Y-93391200D02*
X92215600Y-92798000D01*
D63*
X119761000Y-94589600D02*
X119606000Y-94434600D01*
D61*
X113261200Y-95171200D02*
X113261200Y-95910400D01*
D60*
X71551800Y-75006200D02*
X73539600Y-75006200D01*
D61*
X113502000Y-93875300D02*
X113502000Y-94930400D01*
D62*
X86215600Y-93391200D02*
X92215600Y-93391200D01*
D63*
X126360000Y-38425200D02*
X126365000Y-38430200D01*
D61*
X71729600Y-53771800D02*
X74091800Y-53771800D01*
X139357600Y-86715600D02*
X139141200Y-86715600D01*
X74091800Y-53771800D02*
X74117200Y-53746400D01*
X115414500Y-87462800D02*
X117004600Y-87462800D01*
X113487200Y-92354400D02*
X113502000Y-92369200D01*
D62*
X121031000Y-100849200D02*
X122366000Y-100849200D01*
D60*
X88112600Y-38074600D02*
X88112600Y-35839400D01*
D61*
X113502000Y-94930400D02*
X113261200Y-95171200D01*
X109002000Y-86832000D02*
X109002000Y-85550300D01*
D62*
X103276400Y-64617600D02*
X103251000Y-64643000D01*
X107089500Y-90462800D02*
X108825600Y-90462800D01*
X84637400Y-93391200D02*
X84632800Y-93395800D01*
D61*
X139217400Y-97510600D02*
X136347200Y-97510600D01*
X75260200Y-65328800D02*
X75285600Y-65303400D01*
X134188200Y-83020200D02*
X134188200Y-84226400D01*
D62*
X122646200Y-80964800D02*
X122631200Y-80949800D01*
D61*
X72517000Y-92583000D02*
X73660000Y-91440000D01*
D62*
X122646200Y-83312400D02*
X122646200Y-80964800D01*
D60*
X73539600Y-75006200D02*
X74114400Y-75581000D01*
D63*
X119761000Y-95899200D02*
X119761000Y-94589600D01*
D61*
X85471000Y-60807600D02*
X83820000Y-59156600D01*
X97251400Y-85027400D02*
X95772400Y-85027400D01*
D62*
X103276400Y-62553600D02*
X103276400Y-64617600D01*
D61*
X98376800Y-87802000D02*
X99451400Y-86727400D01*
D62*
X92215600Y-92798000D02*
X93220600Y-91793000D01*
D61*
X139217400Y-68097400D02*
X136677400Y-68097400D01*
X113502000Y-92369200D02*
X113502000Y-93875300D01*
X109002000Y-84444400D02*
X109192000Y-84254400D01*
X135445800Y-83020200D02*
X134188200Y-83020200D01*
D60*
X87182200Y-39005000D02*
X88112600Y-38074600D01*
D62*
X86215600Y-93391200D02*
X84637400Y-93391200D01*
X114226400Y-99900800D02*
X114223800Y-99898200D01*
X94564200Y-91793000D02*
X95557400Y-91793000D01*
D61*
X108991400Y-86995000D02*
X109002000Y-86832000D01*
X134188200Y-84226400D02*
X134162800Y-84251800D01*
X83820000Y-59156600D02*
X83820000Y-58420000D01*
X109002000Y-85550300D02*
X109002000Y-84444400D01*
D62*
X95557400Y-91793000D02*
X95580200Y-91770200D01*
D60*
X74114400Y-75581000D02*
X76073000Y-75581000D01*
D61*
X134150600Y-61734200D02*
X134137400Y-61747400D01*
D62*
X93220600Y-91793000D02*
X94564200Y-91793000D01*
D63*
X82397600Y-47396400D02*
X81813400Y-46812200D01*
D61*
X71678800Y-65328800D02*
X75260200Y-65328800D01*
D62*
X108825600Y-90462800D02*
X108839000Y-90449400D01*
D63*
X119606000Y-93522800D02*
X119606000Y-92484000D01*
D61*
X95772400Y-85027400D02*
X95760600Y-85039200D01*
X115414500Y-87462800D02*
X113929600Y-87462800D01*
D60*
X87182200Y-40030400D02*
X87182200Y-39005000D01*
D61*
X135763000Y-61734200D02*
X134150600Y-61734200D01*
X98376800Y-88011000D02*
X98376800Y-87802000D01*
D63*
X119606000Y-92484000D02*
X119608600Y-92481400D01*
D61*
X71475600Y-92583000D02*
X72517000Y-92583000D01*
D63*
X118643400Y-94488000D02*
X118643400Y-93525400D01*
X125491200Y-62062400D02*
X127177800Y-60375800D01*
X127177800Y-55009600D02*
X130842200Y-55009600D01*
X118646000Y-91468000D02*
X118313200Y-91135200D01*
X94564200Y-93980000D02*
X92506800Y-96037400D01*
X118386400Y-66068400D02*
X118211600Y-66243200D01*
X139115700Y-61645900D02*
X137896600Y-61645900D01*
X85445600Y-84886800D02*
X85064600Y-84505800D01*
D62*
X82740000Y-82968600D02*
X85064600Y-82968600D01*
D63*
X118646000Y-93522800D02*
X118646000Y-91468000D01*
D61*
X139192000Y-64668400D02*
X137896600Y-63373000D01*
D63*
X139979400Y-60782200D02*
X139115700Y-61645900D01*
X80239600Y-81126600D02*
X82016600Y-81126600D01*
X79654400Y-81711800D02*
X80239600Y-81126600D01*
X118491000Y-95899200D02*
X118491000Y-94640400D01*
X85064600Y-84505800D02*
X85064600Y-82968600D01*
X132207000Y-42672000D02*
X128900000Y-39365000D01*
X118386400Y-58597799D02*
X118386400Y-66068400D01*
X139979400Y-52679600D02*
X139979400Y-60782200D01*
X138201400Y-50901600D02*
X139979400Y-52679600D01*
X132207000Y-53644800D02*
X132207000Y-50901600D01*
X79654400Y-94234000D02*
X79654400Y-81711800D01*
X132207000Y-50901600D02*
X132207000Y-42672000D01*
D62*
X82016600Y-81126600D02*
X82016600Y-82245200D01*
D63*
X125491200Y-63576200D02*
X125491200Y-62062400D01*
X86029800Y-84886800D02*
X85445600Y-84886800D01*
X130842200Y-55009600D02*
X132207000Y-53644800D01*
X132207000Y-50901600D02*
X138201400Y-50901600D01*
X118643400Y-93525400D02*
X118646000Y-93522800D01*
X92506800Y-96037400D02*
X81457800Y-96037400D01*
D61*
X137896600Y-63373000D02*
X137896600Y-61645900D01*
D62*
X82016600Y-82245200D02*
X82740000Y-82968600D01*
D63*
X118211600Y-66243200D02*
X117551200Y-66903600D01*
X103200200Y-93980000D02*
X94564200Y-93980000D01*
X118491000Y-94640400D02*
X118643400Y-94488000D01*
X117551200Y-66903600D02*
X109651800Y-66903600D01*
X81457800Y-96037400D02*
X79654400Y-94234000D01*
X127177800Y-60375800D02*
X127177800Y-55009600D01*
X128900000Y-39365000D02*
X128900000Y-35737800D01*
D61*
X139268200Y-71653400D02*
X137490200Y-71653400D01*
X116837400Y-86210200D02*
X117297200Y-86210200D01*
X106832400Y-107416600D02*
X112268000Y-101981000D01*
X103378000Y-86957200D02*
X102603600Y-86957200D01*
X108502000Y-85550300D02*
X108502000Y-84549800D01*
X102209600Y-86563200D02*
X102209600Y-83540600D01*
X101142800Y-65735200D02*
X102489000Y-67081400D01*
X101676200Y-91922600D02*
X104851200Y-91922600D01*
X104851200Y-91922600D02*
X105811000Y-90962800D01*
X127711200Y-72923800D02*
X127711200Y-75260200D01*
X105811000Y-90962800D02*
X107089500Y-90962800D01*
X114221200Y-95120400D02*
X114221200Y-95910400D01*
X112268000Y-100914200D02*
X112268000Y-99034600D01*
X137490200Y-71653400D02*
X134366948Y-68530148D01*
X112321400Y-100860800D02*
X112268000Y-100914200D01*
X103657400Y-75285600D02*
X123774200Y-75285600D01*
X117297200Y-86210200D02*
X117297200Y-84505800D01*
X115189000Y-100860800D02*
X112321400Y-100860800D01*
X116084800Y-86962800D02*
X116837400Y-86210200D01*
X130886200Y-83794600D02*
X131191000Y-83489800D01*
X106603800Y-107416600D02*
X106832400Y-107416600D01*
X108232000Y-84279800D02*
X108232000Y-83540600D01*
X102489000Y-74117200D02*
X103657400Y-75285600D01*
X115414500Y-86962800D02*
X116084800Y-86962800D01*
X108502000Y-84549800D02*
X108232000Y-84279800D01*
X101320600Y-92278200D02*
X101676200Y-91922600D01*
X128295400Y-83794600D02*
X130886200Y-83794600D01*
X127711200Y-82143600D02*
X127711200Y-83210400D01*
X105084000Y-86962800D02*
X105079800Y-86967000D01*
X114002000Y-94901200D02*
X114221200Y-95120400D01*
X102209600Y-83540600D02*
X102209600Y-80746600D01*
X108232000Y-83540600D02*
X102209600Y-83540600D01*
X102489000Y-67081400D02*
X102489000Y-74117200D01*
X112268000Y-101981000D02*
X112268000Y-100914200D01*
X134366948Y-68530148D02*
X133045200Y-68530148D01*
X91858600Y-65735200D02*
X101142800Y-65735200D01*
X102603600Y-86957200D02*
X102209600Y-86563200D01*
X126136000Y-72923800D02*
X127711200Y-72923800D01*
X114221200Y-97081400D02*
X114221200Y-95910400D01*
X114002000Y-93875300D02*
X114002000Y-94901200D01*
X127711200Y-83210400D02*
X128295400Y-83794600D01*
X123774200Y-75285600D02*
X126136000Y-72923800D01*
X112268000Y-99034600D02*
X114221200Y-97081400D01*
X107089500Y-86962800D02*
X105084000Y-86962800D01*
X131191000Y-83489800D02*
X131191000Y-83121000D01*
D62*
X104366000Y-90833000D02*
X94564200Y-90833000D01*
X93982600Y-90833000D02*
X94564200Y-90833000D01*
X92790800Y-89641200D02*
X93982600Y-90833000D01*
X92215600Y-89641200D02*
X86215600Y-89641200D01*
X107089500Y-89962800D02*
X105236200Y-89962800D01*
X105236200Y-89962800D02*
X104366000Y-90833000D01*
X92215600Y-89641200D02*
X92790800Y-89641200D01*
X105232200Y-88544400D02*
X99999800Y-88544400D01*
X99999800Y-88420000D02*
X100866000Y-87553800D01*
X99999800Y-88544400D02*
X99999800Y-88420000D01*
X100447800Y-85027400D02*
X99451400Y-85027400D01*
X107089500Y-88962800D02*
X105650600Y-88962800D01*
X100866000Y-85445600D02*
X100447800Y-85027400D01*
X105650600Y-88962800D02*
X105232200Y-88544400D01*
X100866000Y-87553800D02*
X100866000Y-85445600D01*
D61*
X97251400Y-87536200D02*
X97251400Y-86727400D01*
X96830000Y-87957600D02*
X97251400Y-87536200D01*
D62*
X96830000Y-89334400D02*
X96830000Y-88544400D01*
X104161400Y-89462800D02*
X103860600Y-89763600D01*
X97259200Y-89763600D02*
X96830000Y-89334400D01*
X107089500Y-89462800D02*
X104161400Y-89462800D01*
D61*
X96830000Y-88544400D02*
X96830000Y-87957600D01*
D62*
X103860600Y-89763600D02*
X97259200Y-89763600D01*
D61*
X71602600Y-43850800D02*
X72349600Y-43103800D01*
D60*
X73888600Y-40030400D02*
X72349600Y-41569400D01*
X83032600Y-35839400D02*
X83032600Y-37388800D01*
X83912200Y-38268400D02*
X83912200Y-40030400D01*
X83912200Y-40030400D02*
X73888600Y-40030400D01*
D61*
X71602600Y-50088800D02*
X71602600Y-43850800D01*
D60*
X83032600Y-37388800D02*
X83912200Y-38268400D01*
X72349600Y-41569400D02*
X72349600Y-43103800D01*
D61*
X135776300Y-60070900D02*
X137896600Y-60070900D01*
X135763000Y-60084200D02*
X135776300Y-60070900D01*
D60*
X84531400Y-73786800D02*
X87389000Y-73786800D01*
X79705200Y-76073000D02*
X82245200Y-76073000D01*
X76927200Y-78851000D02*
X79705200Y-76073000D01*
X72456800Y-78851000D02*
X76073000Y-78851000D01*
X76073000Y-78851000D02*
X76927200Y-78851000D01*
X71551800Y-80086200D02*
X71551800Y-79756000D01*
X82245200Y-76073000D02*
X84531400Y-73786800D01*
X71551800Y-79756000D02*
X72456800Y-78851000D01*
D62*
X88468200Y-75946000D02*
X88493600Y-75920600D01*
X85064600Y-77823600D02*
X85064600Y-76682600D01*
X97549000Y-75247200D02*
X97549000Y-73786800D01*
X88468200Y-77980300D02*
X88468200Y-75946000D01*
X96875600Y-75920600D02*
X97549000Y-75247200D01*
X85061600Y-77826600D02*
X85064600Y-77823600D01*
X88493600Y-75920600D02*
X96875600Y-75920600D01*
X85064600Y-76682600D02*
X85826600Y-75920600D01*
X82016600Y-77826600D02*
X85061600Y-77826600D01*
X85826600Y-75920600D02*
X88493600Y-75920600D01*
D60*
X75245200Y-43459400D02*
X74889600Y-43103800D01*
X84355700Y-43459400D02*
X75245200Y-43459400D01*
D62*
X114002000Y-85550300D02*
X114002000Y-83965600D01*
X114002000Y-83965600D02*
X114655200Y-83312400D01*
X114655200Y-83312400D02*
X120106200Y-83312400D01*
X115414500Y-87962800D02*
X118056600Y-87962800D01*
X125186200Y-85125800D02*
X125186200Y-83312400D01*
X124256800Y-86055200D02*
X125186200Y-85125800D01*
X118056600Y-87962800D02*
X119964200Y-86055200D01*
X119964200Y-86055200D02*
X124256800Y-86055200D01*
X106756200Y-99949000D02*
X106603800Y-99796600D01*
X110502000Y-93875300D02*
X110502000Y-94830200D01*
D61*
X103657400Y-105079800D02*
X106603800Y-102133400D01*
X91490800Y-105638600D02*
X92049600Y-105079800D01*
D62*
X111048800Y-98247200D02*
X109347000Y-99949000D01*
D61*
X92049600Y-105079800D02*
X103657400Y-105079800D01*
D62*
X110502000Y-94830200D02*
X111048800Y-95377000D01*
D61*
X91490800Y-107111800D02*
X91490800Y-105638600D01*
D62*
X111048800Y-95377000D02*
X111048800Y-98247200D01*
X109347000Y-99949000D02*
X106756200Y-99949000D01*
D61*
X106603800Y-102133400D02*
X106603800Y-99796600D01*
D62*
X109220000Y-98196400D02*
X104444800Y-98196400D01*
D61*
X104063800Y-101092000D02*
X104063800Y-99796600D01*
X89357200Y-103784400D02*
X101371400Y-103784400D01*
D62*
X110312200Y-95681800D02*
X110312200Y-97104200D01*
D61*
X101371400Y-103784400D02*
X104063800Y-101092000D01*
D62*
X104063800Y-98577400D02*
X104063800Y-99796600D01*
X110002000Y-93875300D02*
X110002000Y-95371600D01*
X110002000Y-95371600D02*
X110312200Y-95681800D01*
X110312200Y-97104200D02*
X109220000Y-98196400D01*
D61*
X87985600Y-105156000D02*
X89357200Y-103784400D01*
D62*
X104444800Y-98196400D02*
X104063800Y-98577400D01*
D61*
X87985600Y-107111800D02*
X87985600Y-105156000D01*
X86766400Y-102641400D02*
X100025200Y-102641400D01*
X100025200Y-102641400D02*
X101523800Y-101142800D01*
D62*
X102539800Y-97205800D02*
X108508800Y-97205800D01*
D61*
X84378800Y-107111800D02*
X84378800Y-105029000D01*
X101523800Y-101142800D02*
X101523800Y-99796600D01*
D62*
X108508800Y-97205800D02*
X109502000Y-96212600D01*
X101523800Y-99796600D02*
X101523800Y-98221800D01*
X101523800Y-98221800D02*
X102539800Y-97205800D01*
D61*
X84378800Y-105029000D02*
X86766400Y-102641400D01*
D62*
X109502000Y-96212600D02*
X109502000Y-93875300D01*
D61*
X80695800Y-103378000D02*
X82626200Y-101447600D01*
D62*
X107975400Y-96316800D02*
X109002000Y-95290200D01*
D61*
X98983800Y-100228400D02*
X98983800Y-99796600D01*
X82626200Y-101447600D02*
X97764600Y-101447600D01*
D62*
X98983800Y-97663000D02*
X100330000Y-96316800D01*
D61*
X80695800Y-107111800D02*
X80695800Y-103378000D01*
X97764600Y-101447600D02*
X98983800Y-100228400D01*
D62*
X109002000Y-95290200D02*
X109002000Y-93875300D01*
X98983800Y-99796600D02*
X98983800Y-97663000D01*
X100330000Y-96316800D02*
X107975400Y-96316800D01*
X96443800Y-97739200D02*
X98755200Y-95427800D01*
X108502000Y-94698000D02*
X108502000Y-93875300D01*
X81864200Y-99796600D02*
X76962000Y-104698800D01*
X96443800Y-99796600D02*
X81864200Y-99796600D01*
X107772200Y-95427800D02*
X108502000Y-94698000D01*
X98755200Y-95427800D02*
X107772200Y-95427800D01*
X76962000Y-104698800D02*
X76962000Y-107111800D01*
X96443800Y-99796600D02*
X96443800Y-97739200D01*
X118491000Y-102539800D02*
X118491000Y-100849200D01*
X132283200Y-94157800D02*
X132283200Y-107315000D01*
X119837200Y-97967800D02*
X124465000Y-97967800D01*
X116535200Y-104495600D02*
X118491000Y-102539800D01*
X118491000Y-99314000D02*
X119837200Y-97967800D01*
X125989000Y-96443800D02*
X125989000Y-93822600D01*
X124465000Y-97967800D02*
X125989000Y-96443800D01*
X125989000Y-93822600D02*
X126949200Y-92862400D01*
X126949200Y-92862400D02*
X130987800Y-92862400D01*
X118491000Y-100849200D02*
X118491000Y-99314000D01*
X130987800Y-92862400D02*
X132283200Y-94157800D01*
X116535200Y-106222800D02*
X116535200Y-104495600D01*
X126290700Y-99974400D02*
X126290700Y-101601900D01*
X119761000Y-99644200D02*
X120497600Y-98907600D01*
X121615200Y-104165400D02*
X121615200Y-106222800D01*
X126290700Y-101601900D02*
X128498600Y-103809800D01*
X120497600Y-98907600D02*
X125223900Y-98907600D01*
X125223900Y-98907600D02*
X126290700Y-99974400D01*
X119761000Y-102311200D02*
X121615200Y-104165400D01*
X119761000Y-100849200D02*
X119761000Y-99644200D01*
X128498600Y-103809800D02*
X128498600Y-107264200D01*
X119761000Y-100849200D02*
X119761000Y-102311200D01*
X128529000Y-96443800D02*
X128529000Y-98140600D01*
X128529000Y-98140600D02*
X128115700Y-98553900D01*
X128115700Y-98553900D02*
X128115700Y-99974400D01*
D63*
X87985600Y-45745400D02*
X87985600Y-46913800D01*
X87985600Y-45745400D02*
X88035400Y-45795200D01*
X86230700Y-44409400D02*
X87640200Y-44409400D01*
X87985600Y-46913800D02*
X87503000Y-47396400D01*
X87985600Y-44754800D02*
X87985600Y-45745400D01*
X87640200Y-44409400D02*
X87985600Y-44754800D01*
X87503000Y-47396400D02*
X86577900Y-47396400D01*
X88035400Y-45795200D02*
X90398600Y-45795200D01*
D62*
X87530300Y-82524600D02*
X87530300Y-79867400D01*
X87530300Y-79867400D02*
X87518200Y-79855300D01*
X110502000Y-82384200D02*
X110210600Y-82092800D01*
X110210600Y-82092800D02*
X109196600Y-82092800D01*
X110502000Y-85550300D02*
X110502000Y-82384200D01*
X111502000Y-79980600D02*
X108991400Y-77470000D01*
X91717500Y-82524600D02*
X91719400Y-82522700D01*
X108991400Y-77470000D02*
X95148400Y-77470000D01*
X95148400Y-77470000D02*
X93649800Y-78968600D01*
X93649800Y-78968600D02*
X93649800Y-81965800D01*
X89355300Y-82524600D02*
X91717500Y-82524600D01*
X93092900Y-82522700D02*
X91719400Y-82522700D01*
X93649800Y-81965800D02*
X93092900Y-82522700D01*
X111502000Y-85550300D02*
X111502000Y-79980600D01*
X115414500Y-88962800D02*
X116521800Y-88962800D01*
X117221000Y-89662000D02*
X117221000Y-95899200D01*
X116521800Y-88962800D02*
X117221000Y-89662000D01*
X121031000Y-91059000D02*
X121031000Y-95899200D01*
X115414500Y-88462800D02*
X118434800Y-88462800D01*
X118434800Y-88462800D02*
X121031000Y-91059000D01*
X85064600Y-79398600D02*
X85064600Y-81318600D01*
X134188200Y-78674500D02*
X133821900Y-78308200D01*
X136218400Y-81456000D02*
X136398000Y-81635600D01*
X134188200Y-81456000D02*
X136218400Y-81456000D01*
X134188200Y-81456000D02*
X131206000Y-81456000D01*
X134188200Y-81456000D02*
X134188200Y-78674500D01*
X136398000Y-81635600D02*
X139357600Y-81635600D01*
X133821900Y-78308200D02*
X133260600Y-78308200D01*
X131206000Y-81456000D02*
X131191000Y-81471000D01*
D61*
X85471000Y-64846200D02*
X85471000Y-67792600D01*
D62*
X112502000Y-78999400D02*
X112502000Y-85550300D01*
X100863400Y-74752200D02*
X102514400Y-76403200D01*
D61*
X90208600Y-65735200D02*
X90208600Y-67754000D01*
D62*
X90170000Y-67792600D02*
X100152200Y-67792600D01*
X78536800Y-62382400D02*
X78536800Y-67157600D01*
X71678800Y-60248800D02*
X76403200Y-60248800D01*
X85293200Y-67792600D02*
X85471000Y-67792600D01*
X85471000Y-67792600D02*
X90170000Y-67792600D01*
X109905800Y-76403200D02*
X112502000Y-78999400D01*
D61*
X90208600Y-67754000D02*
X90170000Y-67792600D01*
D62*
X100152200Y-67792600D02*
X100863400Y-68503800D01*
X102514400Y-76403200D02*
X109905800Y-76403200D01*
X78536800Y-67157600D02*
X79171800Y-67792600D01*
X76403200Y-60248800D02*
X78536800Y-62382400D01*
X100863400Y-68503800D02*
X100863400Y-74752200D01*
X79171800Y-67792600D02*
X85293200Y-67792600D01*
X115570000Y-78308200D02*
X131610600Y-78308200D01*
X113502000Y-80376200D02*
X115570000Y-78308200D01*
X131610600Y-76339200D02*
X131724400Y-76225400D01*
X136829800Y-93370400D02*
X139293600Y-93370400D01*
X113502000Y-85550300D02*
X113502000Y-80376200D01*
X136144000Y-92684600D02*
X136829800Y-93370400D01*
X131610600Y-78308200D02*
X131610600Y-76339200D01*
G04 #@! TA.AperFunction,Conductor*
G36*
X130093059Y-62656402D02*
G01*
X130109371Y-62668874D01*
X133725491Y-65933427D01*
X133735882Y-65943981D01*
X133877624Y-66105971D01*
X133907429Y-66170409D01*
X133908800Y-66188943D01*
X133908800Y-67009390D01*
X133888798Y-67077511D01*
X133878466Y-67091390D01*
X133794114Y-67189800D01*
X133734595Y-67228504D01*
X133698448Y-67233800D01*
X131114800Y-67233800D01*
X131013200Y-67360800D01*
X131013200Y-67530385D01*
X130993198Y-67598506D01*
X130967863Y-67627181D01*
X130895845Y-67687196D01*
X130830708Y-67715440D01*
X130815182Y-67716400D01*
X129256410Y-67716400D01*
X129188289Y-67696398D01*
X129174410Y-67686066D01*
X129076000Y-67601714D01*
X129037296Y-67542195D01*
X129032000Y-67506048D01*
X129032000Y-64770000D01*
X128965413Y-64710811D01*
X128816940Y-64578835D01*
X128816939Y-64578834D01*
X128803400Y-64566800D01*
X127052190Y-64566800D01*
X126984069Y-64546798D01*
X126963095Y-64529895D01*
X126808305Y-64375105D01*
X126774279Y-64312793D01*
X126771400Y-64286010D01*
X126771400Y-62930117D01*
X126794177Y-62857861D01*
X126911579Y-62690144D01*
X126967030Y-62645807D01*
X127014802Y-62636400D01*
X130024938Y-62636400D01*
X130093059Y-62656402D01*
G37*
G04 #@! TD.AperFunction*
G04 #@! TA.AperFunction,Conductor*
G36*
X99289485Y-87954802D02*
G01*
X99328212Y-87994020D01*
X99399048Y-88107357D01*
X99418200Y-88174137D01*
X99418200Y-88785651D01*
X99397039Y-88855542D01*
X99354005Y-88920093D01*
X99299576Y-88965677D01*
X99249167Y-88976200D01*
X97586321Y-88976200D01*
X97518200Y-88956198D01*
X97476922Y-88912713D01*
X97428201Y-88827451D01*
X97411600Y-88764938D01*
X97411600Y-88152978D01*
X97435068Y-88079745D01*
X97500913Y-87987561D01*
X97556781Y-87943758D01*
X97603441Y-87934800D01*
X99221364Y-87934800D01*
X99289485Y-87954802D01*
G37*
G04 #@! TD.AperFunction*
G04 #@! TA.AperFunction,Conductor*
G36*
X128505096Y-65425002D02*
G01*
X128536433Y-65453643D01*
X128649858Y-65599475D01*
X128675892Y-65665527D01*
X128676400Y-65676832D01*
X128676400Y-67767200D01*
X128828800Y-68021200D01*
X133673048Y-68021200D01*
X133741169Y-68041202D01*
X133768714Y-68065200D01*
X133853066Y-68163610D01*
X133882212Y-68228348D01*
X133883400Y-68245610D01*
X133883400Y-68999600D01*
X133863398Y-69067721D01*
X133833000Y-69100400D01*
X133713800Y-69189800D01*
X133647302Y-69214671D01*
X133638200Y-69215000D01*
X130200400Y-69215000D01*
X129768600Y-69545200D01*
X129768600Y-73845368D01*
X129748598Y-73913489D01*
X129742058Y-73922725D01*
X129628633Y-74068557D01*
X129571023Y-74110048D01*
X129529175Y-74117200D01*
X125731672Y-74117200D01*
X125663551Y-74097198D01*
X125618974Y-74047548D01*
X125565502Y-73940603D01*
X125552200Y-73884255D01*
X125552200Y-72097010D01*
X125572414Y-72028560D01*
X125794362Y-71685550D01*
X125848162Y-71639224D01*
X125900148Y-71628000D01*
X126441200Y-71628000D01*
X126746000Y-71323200D01*
X126746000Y-65685790D01*
X126766002Y-65617669D01*
X126782905Y-65596695D01*
X126937695Y-65441905D01*
X127000007Y-65407879D01*
X127026790Y-65405000D01*
X128436975Y-65405000D01*
X128505096Y-65425002D01*
G37*
G04 #@! TD.AperFunction*
G04 #@! TA.AperFunction,Conductor*
G36*
X125938321Y-62732602D02*
G01*
X125971000Y-62763000D01*
X126060400Y-62882200D01*
X126085271Y-62948698D01*
X126085600Y-62957800D01*
X126085600Y-65151000D01*
X126281855Y-65369061D01*
X126312558Y-65433076D01*
X126314200Y-65453351D01*
X126314200Y-67522000D01*
X126294198Y-67590121D01*
X126289000Y-67597600D01*
X126199600Y-67716800D01*
X126142726Y-67759295D01*
X126098800Y-67767200D01*
X124651841Y-67767200D01*
X124583720Y-67747198D01*
X124549314Y-67714440D01*
X124483468Y-67622255D01*
X124460000Y-67549022D01*
X124460000Y-65453739D01*
X124480002Y-65385618D01*
X124524809Y-65343595D01*
X124901362Y-65134399D01*
X124917200Y-65125600D01*
X124917200Y-62937010D01*
X124937202Y-62868889D01*
X124947534Y-62855010D01*
X125031886Y-62756600D01*
X125091405Y-62717896D01*
X125127552Y-62712600D01*
X125870200Y-62712600D01*
X125938321Y-62732602D01*
G37*
G04 #@! TD.AperFunction*
G04 #@! TA.AperFunction,Conductor*
G36*
X89723745Y-78988602D02*
G01*
X89750449Y-79011628D01*
X89890600Y-79171800D01*
X92403810Y-79171800D01*
X92471931Y-79191802D01*
X92492905Y-79208705D01*
X92571495Y-79287295D01*
X92605521Y-79349607D01*
X92608400Y-79376390D01*
X92608400Y-81033568D01*
X92588398Y-81101689D01*
X92581858Y-81110925D01*
X92468433Y-81256757D01*
X92410823Y-81298248D01*
X92368975Y-81305400D01*
X91171890Y-81305400D01*
X91104246Y-81285702D01*
X90914152Y-81164733D01*
X90867421Y-81111287D01*
X90855800Y-81058433D01*
X90855800Y-80746600D01*
X90754200Y-80619600D01*
X89143578Y-80619600D01*
X89070345Y-80596132D01*
X88978161Y-80530287D01*
X88934358Y-80474419D01*
X88925400Y-80427759D01*
X88925400Y-79235349D01*
X88946562Y-79165457D01*
X89040395Y-79024708D01*
X89094824Y-78979123D01*
X89145233Y-78968600D01*
X89655624Y-78968600D01*
X89723745Y-78988602D01*
G37*
G04 #@! TD.AperFunction*
G04 #@! TA.AperFunction,Conductor*
G36*
X104771781Y-84856002D02*
G01*
X104811703Y-84897172D01*
X104833243Y-84933071D01*
X104851200Y-84997899D01*
X104851200Y-85420200D01*
X104952800Y-85496400D01*
X105317200Y-85496400D01*
X105385321Y-85516402D01*
X105392800Y-85521600D01*
X105410400Y-85534800D01*
X105452895Y-85591674D01*
X105460800Y-85635600D01*
X105460800Y-86206210D01*
X105440798Y-86274331D01*
X105423895Y-86295305D01*
X105421505Y-86297695D01*
X105359193Y-86331721D01*
X105332410Y-86334600D01*
X104820618Y-86334600D01*
X104752497Y-86314598D01*
X104739955Y-86305396D01*
X104667937Y-86245381D01*
X104628410Y-86186405D01*
X104622600Y-86148585D01*
X104622600Y-85928200D01*
X104611647Y-85925462D01*
X104611646Y-85925461D01*
X104528496Y-85904674D01*
X104521000Y-85902800D01*
X102927952Y-85902800D01*
X102859831Y-85882798D01*
X102832286Y-85858800D01*
X102747934Y-85760390D01*
X102718788Y-85695652D01*
X102717600Y-85678390D01*
X102717600Y-85040590D01*
X102737602Y-84972469D01*
X102754505Y-84951495D01*
X102833095Y-84872905D01*
X102895407Y-84838879D01*
X102922190Y-84836000D01*
X104703660Y-84836000D01*
X104771781Y-84856002D01*
G37*
G04 #@! TD.AperFunction*
G04 #@! TA.AperFunction,Conductor*
G36*
X112273121Y-45486002D02*
G01*
X112305800Y-45516400D01*
X112395090Y-45635454D01*
X112419961Y-45701952D01*
X112420290Y-45711381D01*
X112395148Y-55391222D01*
X112374969Y-55459291D01*
X112352120Y-55485720D01*
X112024229Y-55772625D01*
X111959791Y-55802429D01*
X111941257Y-55803800D01*
X110388400Y-55803800D01*
X110185200Y-56057800D01*
X110185200Y-61229641D01*
X110165198Y-61297762D01*
X110137912Y-61328030D01*
X109965714Y-61465789D01*
X109900025Y-61492725D01*
X109887002Y-61493400D01*
X107095309Y-61493400D01*
X107027188Y-61473398D01*
X106997790Y-61447188D01*
X106835481Y-61248810D01*
X106807825Y-61183421D01*
X106807000Y-61169022D01*
X106807000Y-60198000D01*
X106629200Y-59918600D01*
X102414190Y-59918600D01*
X102346069Y-59898598D01*
X102325095Y-59881695D01*
X102221105Y-59777705D01*
X102187079Y-59715393D01*
X102184200Y-59688610D01*
X102184200Y-57338537D01*
X102203352Y-57271757D01*
X102274188Y-57158420D01*
X102327254Y-57111255D01*
X102381036Y-57099200D01*
X104343200Y-57099200D01*
X104673400Y-56819800D01*
X104673400Y-56099049D01*
X104693402Y-56030928D01*
X104697793Y-56024537D01*
X104942086Y-55691410D01*
X104952800Y-55676800D01*
X104952800Y-51982577D01*
X104975430Y-51910531D01*
X105499396Y-51158754D01*
X105554756Y-51114305D01*
X105602766Y-51104800D01*
X110769400Y-51104800D01*
X110949001Y-50897568D01*
X111087735Y-50737491D01*
X111087736Y-50737490D01*
X111099600Y-50723800D01*
X111099600Y-45698945D01*
X111112902Y-45642596D01*
X111166375Y-45535651D01*
X111214730Y-45483667D01*
X111279073Y-45466000D01*
X112205000Y-45466000D01*
X112273121Y-45486002D01*
G37*
G04 #@! TD.AperFunction*
G04 #@! TA.AperFunction,Conductor*
G36*
X101207280Y-43352402D02*
G01*
X101230912Y-43372044D01*
X101600000Y-43764200D01*
X103936800Y-44272200D01*
X105708724Y-44588856D01*
X110564124Y-45456551D01*
X110627664Y-45488225D01*
X110646796Y-45510694D01*
X110748238Y-45662857D01*
X110769400Y-45732749D01*
X110769400Y-50223368D01*
X110749398Y-50291489D01*
X110742858Y-50300725D01*
X110629433Y-50446557D01*
X110571823Y-50488048D01*
X110529975Y-50495200D01*
X109421139Y-50495200D01*
X109353018Y-50475198D01*
X109310995Y-50430391D01*
X109228799Y-50282438D01*
X109220000Y-50266600D01*
X103327861Y-48846345D01*
X101429075Y-48388657D01*
X101429074Y-48388657D01*
X101422200Y-48387000D01*
X99387776Y-48362190D01*
X99319904Y-48341358D01*
X99303849Y-48328784D01*
X99049737Y-48094219D01*
X99013248Y-48033317D01*
X99009200Y-48001634D01*
X99009200Y-43686211D01*
X99029202Y-43618090D01*
X99042319Y-43601070D01*
X99251146Y-43373259D01*
X99311921Y-43336559D01*
X99344027Y-43332400D01*
X101139159Y-43332400D01*
X101207280Y-43352402D01*
G37*
G04 #@! TD.AperFunction*
G04 #@! TA.AperFunction,Conductor*
G36*
X115751080Y-45511402D02*
G01*
X115785486Y-45544160D01*
X115851332Y-45636345D01*
X115874800Y-45709578D01*
X115874800Y-51409600D01*
X116433600Y-52222400D01*
X128253992Y-52222400D01*
X128322113Y-52242402D01*
X128328735Y-52246963D01*
X128726743Y-52540232D01*
X128769719Y-52596744D01*
X128778000Y-52641669D01*
X128778000Y-57545656D01*
X128757998Y-57613777D01*
X128729460Y-57645034D01*
X128204487Y-58054222D01*
X128138462Y-58080324D01*
X128127481Y-58080843D01*
X121007729Y-58106090D01*
X120726200Y-58318400D01*
X120726200Y-61144402D01*
X120706198Y-61212523D01*
X120698589Y-61223114D01*
X120560830Y-61395312D01*
X120502657Y-61436010D01*
X120462441Y-61442600D01*
X116920566Y-61442600D01*
X116852445Y-61422598D01*
X116827981Y-61402063D01*
X116594015Y-61148599D01*
X116562507Y-61084978D01*
X116560600Y-61063137D01*
X116560600Y-55626000D01*
X114748604Y-55142801D01*
X114687937Y-55105922D01*
X114656839Y-55042098D01*
X114655071Y-55021747D01*
X114630300Y-50513315D01*
X114630300Y-50513313D01*
X114630200Y-50495200D01*
X114523137Y-50405981D01*
X114483610Y-50347005D01*
X114477800Y-50309185D01*
X114477800Y-45752650D01*
X114493656Y-45691459D01*
X114568795Y-45556209D01*
X114619363Y-45506375D01*
X114678939Y-45491400D01*
X115682959Y-45491400D01*
X115751080Y-45511402D01*
G37*
G04 #@! TD.AperFunction*
G04 #@! TA.AperFunction,Conductor*
G36*
X117567131Y-99664202D02*
G01*
X117588105Y-99681105D01*
X117641295Y-99734295D01*
X117675321Y-99796607D01*
X117678200Y-99823390D01*
X117678200Y-101737422D01*
X117654732Y-101810655D01*
X117588887Y-101902839D01*
X117533019Y-101946642D01*
X117486359Y-101955600D01*
X116968390Y-101955600D01*
X116900269Y-101935598D01*
X116879295Y-101918695D01*
X116800705Y-101840105D01*
X116766679Y-101777793D01*
X116763800Y-101751010D01*
X116763800Y-101320600D01*
X116755794Y-101314195D01*
X116755793Y-101314194D01*
X116713855Y-101280644D01*
X116636800Y-101219000D01*
X114944759Y-101219000D01*
X114876638Y-101198998D01*
X114846370Y-101171712D01*
X114810211Y-101126514D01*
X114783275Y-101060826D01*
X114782600Y-101047802D01*
X114782600Y-100670937D01*
X114801752Y-100604157D01*
X114842197Y-100539445D01*
X114895263Y-100492280D01*
X114960902Y-100480784D01*
X114962235Y-100480910D01*
X114966362Y-100481300D01*
X115411638Y-100481300D01*
X115429597Y-100479602D01*
X115434827Y-100479108D01*
X115434828Y-100479108D01*
X115442474Y-100478385D01*
X115555434Y-100438717D01*
X115597180Y-100431600D01*
X116509800Y-100431600D01*
X116662200Y-100279200D01*
X116662200Y-99848790D01*
X116682202Y-99780669D01*
X116699105Y-99759695D01*
X116777695Y-99681105D01*
X116840007Y-99647079D01*
X116866790Y-99644200D01*
X117499010Y-99644200D01*
X117567131Y-99664202D01*
G37*
G04 #@! TD.AperFunction*
G04 #@! TA.AperFunction,Conductor*
G36*
X119090088Y-33700402D02*
G01*
X119112307Y-33718567D01*
X119532723Y-34150995D01*
X119928394Y-34557971D01*
X119961538Y-34620756D01*
X119964052Y-34646166D01*
X119948486Y-40047726D01*
X119938800Y-43408600D01*
X122580400Y-44653200D01*
X128573105Y-44653200D01*
X128641226Y-44673202D01*
X128687719Y-44726858D01*
X128696658Y-44754489D01*
X128826281Y-45402606D01*
X128828726Y-45428041D01*
X128803810Y-49763484D01*
X128783417Y-49831489D01*
X128742047Y-49871157D01*
X128147305Y-50223597D01*
X128083070Y-50241200D01*
X117551200Y-50241200D01*
X117461887Y-50366239D01*
X117406019Y-50410042D01*
X117359359Y-50419000D01*
X116371441Y-50419000D01*
X116303320Y-50398998D01*
X116268914Y-50366240D01*
X116203068Y-50274055D01*
X116179600Y-50200822D01*
X116179600Y-44145200D01*
X116078000Y-43967400D01*
X114350800Y-43967400D01*
X114173000Y-44246800D01*
X114173000Y-50203051D01*
X114151838Y-50272943D01*
X114058005Y-50413692D01*
X114003576Y-50459277D01*
X113953167Y-50469800D01*
X112926339Y-50469800D01*
X112858218Y-50449798D01*
X112816195Y-50404991D01*
X112741056Y-50269741D01*
X112725200Y-50208550D01*
X112725200Y-44323000D01*
X112598200Y-43967400D01*
X107235343Y-43967400D01*
X107167222Y-43947398D01*
X107152371Y-43936225D01*
X106783402Y-43613377D01*
X106779859Y-43610156D01*
X106363885Y-43217291D01*
X106328095Y-43155975D01*
X106324400Y-43125687D01*
X106324400Y-40055800D01*
X105816400Y-39522400D01*
X105806272Y-39522439D01*
X105806271Y-39522439D01*
X99356348Y-39547536D01*
X99288150Y-39527799D01*
X99251020Y-39491429D01*
X99055762Y-39198543D01*
X99034600Y-39128651D01*
X99034600Y-34255833D01*
X99054602Y-34187712D01*
X99090708Y-34150995D01*
X99231457Y-34057162D01*
X99301349Y-34036000D01*
X107518200Y-34036000D01*
X107811013Y-33720663D01*
X107872023Y-33684355D01*
X107903345Y-33680400D01*
X119021967Y-33680400D01*
X119090088Y-33700402D01*
G37*
G04 #@! TD.AperFunction*
G04 #@! TA.AperFunction,Conductor*
G36*
X103837719Y-86354602D02*
G01*
X103872820Y-86388343D01*
X104013000Y-86588600D01*
X105332410Y-86588600D01*
X105400531Y-86608602D01*
X105421505Y-86625505D01*
X105474695Y-86678695D01*
X105508721Y-86741007D01*
X105511600Y-86767790D01*
X105511600Y-87185451D01*
X105490439Y-87255342D01*
X105447405Y-87319893D01*
X105392976Y-87365477D01*
X105342567Y-87376000D01*
X104013000Y-87376000D01*
X104006908Y-87383108D01*
X104006907Y-87383108D01*
X103898314Y-87509800D01*
X103838795Y-87548504D01*
X103802648Y-87553800D01*
X102968143Y-87553800D01*
X102900022Y-87533798D01*
X102885171Y-87522625D01*
X102870514Y-87509800D01*
X102760627Y-87413649D01*
X102722534Y-87353739D01*
X102717600Y-87318825D01*
X102717600Y-86636951D01*
X102737602Y-86568830D01*
X102749945Y-86552661D01*
X102908661Y-86376310D01*
X102969099Y-86339057D01*
X103002316Y-86334600D01*
X103769598Y-86334600D01*
X103837719Y-86354602D01*
G37*
G04 #@! TD.AperFunction*
M02*
