%TF.GenerationSoftware,KiCad,Pcbnew,(6.0.11)*%
%TF.CreationDate,2023-08-29T14:34:00-05:00*%
%TF.ProjectId,Puerta,50756572-7461-42e6-9b69-6361645f7063,rev?*%
%TF.SameCoordinates,Original*%
%TF.FileFunction,Drillmap*%
%TF.FilePolarity,Positive*%
%FSLAX45Y45*%
G04 Gerber Fmt 4.5, Leading zero omitted, Abs format (unit mm)*
G04 Created by KiCad (PCBNEW (6.0.11)) date 2023-08-29 14:34:00*
%MOMM*%
%LPD*%
G01*
G04 APERTURE LIST*
%ADD10C,0.100000*%
%ADD11C,0.200000*%
%ADD12C,0.320000*%
G04 APERTURE END LIST*
D10*
X6924040Y-3276600D02*
X14175740Y-3276600D01*
X14175740Y-3276600D02*
X14175740Y-10919460D01*
X14175740Y-10919460D02*
X6924040Y-10919460D01*
X6924040Y-10919460D02*
X6924040Y-3276600D01*
D11*
D12*
X7175520Y-10066040D02*
X7495520Y-10386040D01*
X7495520Y-10066040D02*
X7175520Y-10386040D01*
X7213620Y-3558560D02*
X7533620Y-3878560D01*
X7533620Y-3558560D02*
X7213620Y-3878560D01*
X13492500Y-3558560D02*
X13812500Y-3878560D01*
X13812500Y-3558560D02*
X13492500Y-3878560D01*
X13624580Y-10160020D02*
X13944580Y-10480020D01*
X13944580Y-10160020D02*
X13624580Y-10480020D01*
D11*
X7176659Y-11234936D02*
X7176659Y-11034936D01*
X7224278Y-11034936D01*
X7252849Y-11044460D01*
X7271897Y-11063508D01*
X7281421Y-11082555D01*
X7290945Y-11120650D01*
X7290945Y-11149222D01*
X7281421Y-11187317D01*
X7271897Y-11206365D01*
X7252849Y-11225412D01*
X7224278Y-11234936D01*
X7176659Y-11234936D01*
X7376659Y-11234936D02*
X7376659Y-11101603D01*
X7376659Y-11139698D02*
X7386183Y-11120650D01*
X7395707Y-11111127D01*
X7414754Y-11101603D01*
X7433802Y-11101603D01*
X7500468Y-11234936D02*
X7500468Y-11101603D01*
X7500468Y-11034936D02*
X7490945Y-11044460D01*
X7500468Y-11053984D01*
X7509992Y-11044460D01*
X7500468Y-11034936D01*
X7500468Y-11053984D01*
X7624278Y-11234936D02*
X7605230Y-11225412D01*
X7595707Y-11206365D01*
X7595707Y-11034936D01*
X7729040Y-11234936D02*
X7709992Y-11225412D01*
X7700468Y-11206365D01*
X7700468Y-11034936D01*
X7957611Y-11234936D02*
X7957611Y-11034936D01*
X8024278Y-11177793D01*
X8090945Y-11034936D01*
X8090945Y-11234936D01*
X8271897Y-11234936D02*
X8271897Y-11130174D01*
X8262373Y-11111127D01*
X8243326Y-11101603D01*
X8205230Y-11101603D01*
X8186183Y-11111127D01*
X8271897Y-11225412D02*
X8252849Y-11234936D01*
X8205230Y-11234936D01*
X8186183Y-11225412D01*
X8176659Y-11206365D01*
X8176659Y-11187317D01*
X8186183Y-11168270D01*
X8205230Y-11158746D01*
X8252849Y-11158746D01*
X8271897Y-11149222D01*
X8367135Y-11101603D02*
X8367135Y-11301603D01*
X8367135Y-11111127D02*
X8386183Y-11101603D01*
X8424278Y-11101603D01*
X8443326Y-11111127D01*
X8452850Y-11120650D01*
X8462373Y-11139698D01*
X8462373Y-11196841D01*
X8452850Y-11215888D01*
X8443326Y-11225412D01*
X8424278Y-11234936D01*
X8386183Y-11234936D01*
X8367135Y-11225412D01*
X8548088Y-11215888D02*
X8557611Y-11225412D01*
X8548088Y-11234936D01*
X8538564Y-11225412D01*
X8548088Y-11215888D01*
X8548088Y-11234936D01*
X8548088Y-11111127D02*
X8557611Y-11120650D01*
X8548088Y-11130174D01*
X8538564Y-11120650D01*
X8548088Y-11111127D01*
X8548088Y-11130174D01*
X6719040Y-11464460D02*
X6919040Y-11664460D01*
X6919040Y-11464460D02*
X6719040Y-11664460D01*
X7157611Y-11454936D02*
X7281421Y-11454936D01*
X7214754Y-11531127D01*
X7243326Y-11531127D01*
X7262373Y-11540650D01*
X7271897Y-11550174D01*
X7281421Y-11569222D01*
X7281421Y-11616841D01*
X7271897Y-11635888D01*
X7262373Y-11645412D01*
X7243326Y-11654936D01*
X7186183Y-11654936D01*
X7167135Y-11645412D01*
X7157611Y-11635888D01*
X7367135Y-11635888D02*
X7376659Y-11645412D01*
X7367135Y-11654936D01*
X7357611Y-11645412D01*
X7367135Y-11635888D01*
X7367135Y-11654936D01*
X7452849Y-11473984D02*
X7462373Y-11464460D01*
X7481421Y-11454936D01*
X7529040Y-11454936D01*
X7548088Y-11464460D01*
X7557611Y-11473984D01*
X7567135Y-11493031D01*
X7567135Y-11512079D01*
X7557611Y-11540650D01*
X7443326Y-11654936D01*
X7567135Y-11654936D01*
X7690945Y-11454936D02*
X7709992Y-11454936D01*
X7729040Y-11464460D01*
X7738564Y-11473984D01*
X7748088Y-11493031D01*
X7757611Y-11531127D01*
X7757611Y-11578746D01*
X7748088Y-11616841D01*
X7738564Y-11635888D01*
X7729040Y-11645412D01*
X7709992Y-11654936D01*
X7690945Y-11654936D01*
X7671897Y-11645412D01*
X7662373Y-11635888D01*
X7652849Y-11616841D01*
X7643326Y-11578746D01*
X7643326Y-11531127D01*
X7652849Y-11493031D01*
X7662373Y-11473984D01*
X7671897Y-11464460D01*
X7690945Y-11454936D01*
X7881421Y-11454936D02*
X7900468Y-11454936D01*
X7919516Y-11464460D01*
X7929040Y-11473984D01*
X7938564Y-11493031D01*
X7948088Y-11531127D01*
X7948088Y-11578746D01*
X7938564Y-11616841D01*
X7929040Y-11635888D01*
X7919516Y-11645412D01*
X7900468Y-11654936D01*
X7881421Y-11654936D01*
X7862373Y-11645412D01*
X7852849Y-11635888D01*
X7843326Y-11616841D01*
X7833802Y-11578746D01*
X7833802Y-11531127D01*
X7843326Y-11493031D01*
X7852849Y-11473984D01*
X7862373Y-11464460D01*
X7881421Y-11454936D01*
X8033802Y-11654936D02*
X8033802Y-11521603D01*
X8033802Y-11540650D02*
X8043326Y-11531127D01*
X8062373Y-11521603D01*
X8090945Y-11521603D01*
X8109992Y-11531127D01*
X8119516Y-11550174D01*
X8119516Y-11654936D01*
X8119516Y-11550174D02*
X8129040Y-11531127D01*
X8148088Y-11521603D01*
X8176659Y-11521603D01*
X8195707Y-11531127D01*
X8205230Y-11550174D01*
X8205230Y-11654936D01*
X8300468Y-11654936D02*
X8300468Y-11521603D01*
X8300468Y-11540650D02*
X8309992Y-11531127D01*
X8329040Y-11521603D01*
X8357611Y-11521603D01*
X8376659Y-11531127D01*
X8386183Y-11550174D01*
X8386183Y-11654936D01*
X8386183Y-11550174D02*
X8395707Y-11531127D01*
X8414754Y-11521603D01*
X8443326Y-11521603D01*
X8462373Y-11531127D01*
X8471897Y-11550174D01*
X8471897Y-11654936D01*
X8862373Y-11445412D02*
X8690945Y-11702555D01*
X9119516Y-11454936D02*
X9138564Y-11454936D01*
X9157611Y-11464460D01*
X9167135Y-11473984D01*
X9176659Y-11493031D01*
X9186183Y-11531127D01*
X9186183Y-11578746D01*
X9176659Y-11616841D01*
X9167135Y-11635888D01*
X9157611Y-11645412D01*
X9138564Y-11654936D01*
X9119516Y-11654936D01*
X9100469Y-11645412D01*
X9090945Y-11635888D01*
X9081421Y-11616841D01*
X9071897Y-11578746D01*
X9071897Y-11531127D01*
X9081421Y-11493031D01*
X9090945Y-11473984D01*
X9100469Y-11464460D01*
X9119516Y-11454936D01*
X9271897Y-11635888D02*
X9281421Y-11645412D01*
X9271897Y-11654936D01*
X9262373Y-11645412D01*
X9271897Y-11635888D01*
X9271897Y-11654936D01*
X9471897Y-11654936D02*
X9357611Y-11654936D01*
X9414754Y-11654936D02*
X9414754Y-11454936D01*
X9395707Y-11483508D01*
X9376659Y-11502555D01*
X9357611Y-11512079D01*
X9548088Y-11473984D02*
X9557611Y-11464460D01*
X9576659Y-11454936D01*
X9624278Y-11454936D01*
X9643326Y-11464460D01*
X9652850Y-11473984D01*
X9662373Y-11493031D01*
X9662373Y-11512079D01*
X9652850Y-11540650D01*
X9538564Y-11654936D01*
X9662373Y-11654936D01*
X9833802Y-11454936D02*
X9795707Y-11454936D01*
X9776659Y-11464460D01*
X9767135Y-11473984D01*
X9748088Y-11502555D01*
X9738564Y-11540650D01*
X9738564Y-11616841D01*
X9748088Y-11635888D01*
X9757611Y-11645412D01*
X9776659Y-11654936D01*
X9814754Y-11654936D01*
X9833802Y-11645412D01*
X9843326Y-11635888D01*
X9852850Y-11616841D01*
X9852850Y-11569222D01*
X9843326Y-11550174D01*
X9833802Y-11540650D01*
X9814754Y-11531127D01*
X9776659Y-11531127D01*
X9757611Y-11540650D01*
X9748088Y-11550174D01*
X9738564Y-11569222D01*
X9976659Y-11454936D02*
X9995707Y-11454936D01*
X10014754Y-11464460D01*
X10024278Y-11473984D01*
X10033802Y-11493031D01*
X10043326Y-11531127D01*
X10043326Y-11578746D01*
X10033802Y-11616841D01*
X10024278Y-11635888D01*
X10014754Y-11645412D01*
X9995707Y-11654936D01*
X9976659Y-11654936D01*
X9957611Y-11645412D01*
X9948088Y-11635888D01*
X9938564Y-11616841D01*
X9929040Y-11578746D01*
X9929040Y-11531127D01*
X9938564Y-11493031D01*
X9948088Y-11473984D01*
X9957611Y-11464460D01*
X9976659Y-11454936D01*
X10119516Y-11454936D02*
X10119516Y-11493031D01*
X10195707Y-11454936D02*
X10195707Y-11493031D01*
X10490945Y-11731127D02*
X10481421Y-11721603D01*
X10462373Y-11693031D01*
X10452850Y-11673984D01*
X10443326Y-11645412D01*
X10433802Y-11597793D01*
X10433802Y-11559698D01*
X10443326Y-11512079D01*
X10452850Y-11483508D01*
X10462373Y-11464460D01*
X10481421Y-11435888D01*
X10490945Y-11426365D01*
X10652850Y-11521603D02*
X10652850Y-11654936D01*
X10605230Y-11445412D02*
X10557611Y-11588269D01*
X10681421Y-11588269D01*
X10909992Y-11654936D02*
X10909992Y-11454936D01*
X10995707Y-11654936D02*
X10995707Y-11550174D01*
X10986183Y-11531127D01*
X10967135Y-11521603D01*
X10938564Y-11521603D01*
X10919516Y-11531127D01*
X10909992Y-11540650D01*
X11119516Y-11654936D02*
X11100469Y-11645412D01*
X11090945Y-11635888D01*
X11081421Y-11616841D01*
X11081421Y-11559698D01*
X11090945Y-11540650D01*
X11100469Y-11531127D01*
X11119516Y-11521603D01*
X11148088Y-11521603D01*
X11167135Y-11531127D01*
X11176659Y-11540650D01*
X11186183Y-11559698D01*
X11186183Y-11616841D01*
X11176659Y-11635888D01*
X11167135Y-11645412D01*
X11148088Y-11654936D01*
X11119516Y-11654936D01*
X11300468Y-11654936D02*
X11281421Y-11645412D01*
X11271897Y-11626365D01*
X11271897Y-11454936D01*
X11452849Y-11645412D02*
X11433802Y-11654936D01*
X11395707Y-11654936D01*
X11376659Y-11645412D01*
X11367135Y-11626365D01*
X11367135Y-11550174D01*
X11376659Y-11531127D01*
X11395707Y-11521603D01*
X11433802Y-11521603D01*
X11452849Y-11531127D01*
X11462373Y-11550174D01*
X11462373Y-11569222D01*
X11367135Y-11588269D01*
X11538564Y-11645412D02*
X11557611Y-11654936D01*
X11595707Y-11654936D01*
X11614754Y-11645412D01*
X11624278Y-11626365D01*
X11624278Y-11616841D01*
X11614754Y-11597793D01*
X11595707Y-11588269D01*
X11567135Y-11588269D01*
X11548088Y-11578746D01*
X11538564Y-11559698D01*
X11538564Y-11550174D01*
X11548088Y-11531127D01*
X11567135Y-11521603D01*
X11595707Y-11521603D01*
X11614754Y-11531127D01*
X11690945Y-11731127D02*
X11700468Y-11721603D01*
X11719516Y-11693031D01*
X11729040Y-11673984D01*
X11738564Y-11645412D01*
X11748088Y-11597793D01*
X11748088Y-11559698D01*
X11738564Y-11512079D01*
X11729040Y-11483508D01*
X11719516Y-11464460D01*
X11700468Y-11435888D01*
X11690945Y-11426365D01*
X12052849Y-11731127D02*
X12043326Y-11721603D01*
X12024278Y-11693031D01*
X12014754Y-11673984D01*
X12005230Y-11645412D01*
X11995707Y-11597793D01*
X11995707Y-11559698D01*
X12005230Y-11512079D01*
X12014754Y-11483508D01*
X12024278Y-11464460D01*
X12043326Y-11435888D01*
X12052849Y-11426365D01*
X12129040Y-11521603D02*
X12129040Y-11654936D01*
X12129040Y-11540650D02*
X12138564Y-11531127D01*
X12157611Y-11521603D01*
X12186183Y-11521603D01*
X12205230Y-11531127D01*
X12214754Y-11550174D01*
X12214754Y-11654936D01*
X12338564Y-11654936D02*
X12319516Y-11645412D01*
X12309992Y-11635888D01*
X12300468Y-11616841D01*
X12300468Y-11559698D01*
X12309992Y-11540650D01*
X12319516Y-11531127D01*
X12338564Y-11521603D01*
X12367135Y-11521603D01*
X12386183Y-11531127D01*
X12395707Y-11540650D01*
X12405230Y-11559698D01*
X12405230Y-11616841D01*
X12395707Y-11635888D01*
X12386183Y-11645412D01*
X12367135Y-11654936D01*
X12338564Y-11654936D01*
X12462373Y-11521603D02*
X12538564Y-11521603D01*
X12490945Y-11454936D02*
X12490945Y-11626365D01*
X12500468Y-11645412D01*
X12519516Y-11654936D01*
X12538564Y-11654936D01*
X12757611Y-11521603D02*
X12757611Y-11721603D01*
X12757611Y-11531127D02*
X12776659Y-11521603D01*
X12814754Y-11521603D01*
X12833802Y-11531127D01*
X12843326Y-11540650D01*
X12852849Y-11559698D01*
X12852849Y-11616841D01*
X12843326Y-11635888D01*
X12833802Y-11645412D01*
X12814754Y-11654936D01*
X12776659Y-11654936D01*
X12757611Y-11645412D01*
X12967135Y-11654936D02*
X12948088Y-11645412D01*
X12938564Y-11626365D01*
X12938564Y-11454936D01*
X13129040Y-11654936D02*
X13129040Y-11550174D01*
X13119516Y-11531127D01*
X13100468Y-11521603D01*
X13062373Y-11521603D01*
X13043326Y-11531127D01*
X13129040Y-11645412D02*
X13109992Y-11654936D01*
X13062373Y-11654936D01*
X13043326Y-11645412D01*
X13033802Y-11626365D01*
X13033802Y-11607317D01*
X13043326Y-11588269D01*
X13062373Y-11578746D01*
X13109992Y-11578746D01*
X13129040Y-11569222D01*
X13195707Y-11521603D02*
X13271897Y-11521603D01*
X13224278Y-11454936D02*
X13224278Y-11626365D01*
X13233802Y-11645412D01*
X13252849Y-11654936D01*
X13271897Y-11654936D01*
X13414754Y-11645412D02*
X13395707Y-11654936D01*
X13357611Y-11654936D01*
X13338564Y-11645412D01*
X13329040Y-11626365D01*
X13329040Y-11550174D01*
X13338564Y-11531127D01*
X13357611Y-11521603D01*
X13395707Y-11521603D01*
X13414754Y-11531127D01*
X13424278Y-11550174D01*
X13424278Y-11569222D01*
X13329040Y-11588269D01*
X13595707Y-11654936D02*
X13595707Y-11454936D01*
X13595707Y-11645412D02*
X13576659Y-11654936D01*
X13538564Y-11654936D01*
X13519516Y-11645412D01*
X13509992Y-11635888D01*
X13500468Y-11616841D01*
X13500468Y-11559698D01*
X13509992Y-11540650D01*
X13519516Y-11531127D01*
X13538564Y-11521603D01*
X13576659Y-11521603D01*
X13595707Y-11531127D01*
X13671897Y-11731127D02*
X13681421Y-11721603D01*
X13700468Y-11693031D01*
X13709992Y-11673984D01*
X13719516Y-11645412D01*
X13729040Y-11597793D01*
X13729040Y-11559698D01*
X13719516Y-11512079D01*
X13709992Y-11483508D01*
X13700468Y-11464460D01*
X13681421Y-11435888D01*
X13671897Y-11426365D01*
M02*
